<?xml version="1.0" standalone="no"?>
<!DOCTYPE svg PUBLIC "-//W3C//DTD SVG 20010904//EN"
 "http://www.w3.org/TR/2001/REC-SVG-20010904/DTD/svg10.dtd">
<svg version="1.0" xmlns="http://www.w3.org/2000/svg"
 width="1497.000000pt" height="500.000000pt" viewBox="0 0 1497.000000 500.000000"
 preserveAspectRatio="xMidYMid meet">

<g transform="translate(0.000000,500.000000) scale(0.100000,-0.100000)"
fill="#ffffff" stroke="none">
<path d="M4780 3989 c-304 -12 -491 -45 -627 -109 -84 -39 -172 -123 -216
-208 -60 -114 -97 -308 -97 -507 l0 -85 -235 0 -235 0 0 -145 0 -145 235 0
235 0 0 -895 0 -895 165 0 165 0 0 895 0 895 525 0 525 0 0 145 0 145 -521 0
-521 0 7 133 c11 222 38 313 111 377 91 79 184 97 599 115 176 7 321 14 323
14 1 1 2 64 2 141 l0 140 -132 -2 c-73 0 -212 -4 -308 -9z"/>
<path d="M6740 3989 c-602 -25 -815 -136 -899 -469 -22 -86 -41 -259 -41 -367
l0 -73 -235 0 -236 0 3 -142 3 -143 233 -3 232 -2 0 -895 0 -895 165 0 165 0
0 895 0 895 525 0 525 0 0 145 0 145 -519 0 -519 0 4 118 c10 233 37 327 111
393 88 76 183 96 543 109 151 6 299 13 328 16 l52 5 0 140 0 139 -132 -2 c-73
0 -212 -4 -308 -9z"/>
<path d="M7417 3993 c-4 -3 -7 -93 -7 -200 l0 -193 165 0 165 0 0 200 0 200
-158 0 c-87 0 -162 -3 -165 -7z"/>
<path d="M11057 3993 c-4 -3 -7 -93 -7 -200 l0 -193 165 0 165 0 0 200 0 200
-158 0 c-87 0 -162 -3 -165 -7z"/>
<path d="M1610 3099 c-272 -14 -464 -51 -595 -114 -90 -43 -174 -129 -204
-209 -24 -64 -44 -201 -39 -271 l3 -50 171 -3 171 -2 7 62 c11 97 24 136 62
177 40 45 107 76 207 98 97 20 806 30 985 14 221 -21 333 -62 418 -153 91 -98
113 -188 114 -460 0 -188 -4 -196 -58 -129 -68 85 -173 130 -367 158 -144 21
-1136 25 -1280 6 -394 -55 -519 -205 -518 -623 0 -221 29 -327 115 -425 144
-164 361 -204 1093 -205 429 0 631 18 767 70 70 26 161 94 208 155 l35 45 3
-120 3 -120 164 0 165 0 0 679 c0 676 -6 826 -36 946 -27 108 -59 162 -147
250 -157 157 -317 204 -763 225 -238 11 -459 11 -684 -1z m920 -1183 c191 -34
288 -85 331 -173 34 -69 34 -216 0 -285 -59 -123 -188 -168 -526 -188 -324
-19 -913 -5 -1053 24 -114 24 -175 65 -218 146 -15 28 -19 58 -19 155 0 112 2
124 29 178 48 98 122 137 296 156 47 5 308 8 580 6 393 -2 513 -6 580 -19z"/>
<path d="M9210 3100 c-240 -14 -375 -40 -498 -96 -83 -38 -177 -121 -213 -189
-42 -78 -49 -62 -49 110 l0 155 -165 0 -165 0 0 -1040 0 -1040 164 0 165 0 3
668 c4 729 4 721 65 834 42 77 140 163 235 207 175 81 293 96 743 96 330 -1
368 -2 458 -22 225 -49 335 -142 384 -324 15 -57 17 -143 20 -761 l4 -698 171
0 170 0 -5 713 c-3 466 -8 736 -16 782 -31 188 -80 301 -169 393 -136 137
-310 190 -697 212 -200 11 -402 11 -605 0z"/>
<path d="M12614 3099 c-273 -13 -466 -50 -600 -114 -91 -44 -173 -129 -204
-211 -25 -68 -42 -188 -38 -264 l3 -55 171 -3 170 -2 10 84 c15 114 43 162
121 203 106 57 183 66 618 71 638 7 806 -22 933 -163 89 -99 112 -193 112
-466 0 -179 -5 -189 -59 -120 -68 85 -172 130 -366 158 -148 22 -1123 25
-1284 5 -304 -39 -448 -148 -496 -378 -34 -165 -27 -406 15 -529 44 -128 148
-228 286 -276 153 -52 495 -74 1019 -66 444 7 582 27 709 101 38 22 126 105
160 151 14 18 15 8 16 -102 l0 -123 165 0 165 0 0 673 c0 383 -4 719 -10 782
-21 219 -67 324 -193 442 -106 99 -247 154 -463 183 -197 26 -646 35 -960 19z
m906 -1182 c194 -33 284 -77 333 -165 26 -46 30 -64 31 -135 3 -197 -74 -279
-302 -323 -164 -31 -597 -42 -1009 -24 -301 13 -398 35 -464 107 -55 59 -64
88 -64 218 0 112 2 124 29 178 48 98 126 139 298 157 46 4 301 7 568 6 390 -3
504 -6 580 -19z"/>
<path d="M7410 2040 l0 -1040 165 0 165 0 0 1040 0 1040 -165 0 -165 0 0
-1040z"/>
<path d="M11050 2040 l0 -1040 165 0 165 0 0 1040 0 1040 -165 0 -165 0 0
-1040z"/>
</g>
</svg>
