<?xml version="1.0" standalone="no"?>
<!DOCTYPE svg PUBLIC "-//W3C//DTD SVG 20010904//EN"
 "http://www.w3.org/TR/2001/REC-SVG-20010904/DTD/svg10.dtd">
<svg version="1.0" xmlns="http://www.w3.org/2000/svg"
 width="1020.000000pt" height="321.000000pt" viewBox="0 0 1020.000000 321.000000"
 preserveAspectRatio="xMidYMid meet">

<g transform="translate(0.000000,321.000000) scale(0.100000,-0.100000)"
fill="#000000" stroke="none">
<path d="M2041 2910 c-77 -22 -165 -81 -203 -135 -39 -57 -58 -140 -65 -292
l-6 -133 -104 0 -103 0 0 -155 0 -155 105 0 105 0 0 -575 0 -575 195 0 195 0
0 575 0 575 145 0 145 0 0 155 0 155 -145 0 -145 0 0 73 c1 102 13 147 51 181
32 28 32 28 143 24 61 -3 117 -7 125 -9 10 -3 20 28 39 128 14 73 23 135 20
138 -3 4 -48 15 -99 25 -124 26 -308 26 -398 0z"/>
<path d="M2988 2916 c-125 -36 -212 -107 -248 -204 -16 -42 -25 -97 -33 -209
l-10 -153 -104 0 -103 0 0 -155 0 -155 105 0 105 0 2 -572 3 -573 193 -3 192
-2 0 575 0 575 145 0 145 0 0 155 0 155 -145 0 -145 0 0 59 c0 102 16 163 52
195 l32 29 127 -6 127 -5 22 121 c12 67 23 126 24 131 0 6 -28 18 -64 29 -85
25 -351 33 -422 13z"/>
<path d="M3590 2720 l0 -180 195 0 195 0 0 180 0 180 -195 0 -195 0 0 -180z"/>
<path d="M6080 2720 l0 -180 195 0 195 0 0 180 0 180 -195 0 -195 0 0 -180z"/>
<path d="M7431 2878 c-139 -352 -771 -1979 -771 -1983 0 -3 96 -5 214 -5 l214
0 16 43 c9 23 47 125 84 227 l67 185 400 0 400 0 86 -225 87 -225 222 -3 c208
-2 221 -1 216 15 -3 10 -183 461 -400 1003 l-394 985 -216 3 -216 2 -9 -22z
m356 -825 c73 -196 131 -358 129 -360 -1 -2 -122 -2 -268 -1 l-264 3 130 358
c71 196 132 357 135 357 4 0 66 -161 138 -357z"/>
<path d="M8530 2730 l0 -170 300 0 300 0 0 -835 0 -835 203 2 202 3 3 833 2
832 295 0 295 0 0 170 0 170 -800 0 -800 0 0 -170z"/>
<path d="M539 2365 c-141 -27 -231 -74 -309 -162 -40 -46 -102 -161 -114 -214
l-6 -26 158 -27 c86 -15 164 -29 173 -32 12 -3 24 11 43 51 49 99 114 129 265
123 122 -5 167 -24 199 -88 14 -29 22 -62 22 -96 0 -47 -2 -53 -27 -62 -51
-20 -136 -41 -308 -76 -275 -57 -381 -101 -465 -193 -72 -78 -94 -143 -94
-273 0 -145 22 -200 118 -296 55 -55 85 -76 131 -93 91 -34 160 -44 265 -38
136 8 227 43 348 132 35 25 65 45 67 43 2 -2 13 -36 24 -75 l22 -73 189 0
c109 0 190 4 190 9 0 5 -9 30 -20 55 -51 120 -52 133 -59 626 -7 443 -8 468
-29 532 -39 116 -150 205 -304 244 -91 22 -380 28 -479 9z m429 -920 c-4 -86
-9 -119 -25 -150 -50 -95 -160 -158 -275 -158 -58 0 -75 4 -115 29 -80 50
-117 159 -78 233 34 67 83 89 350 152 117 29 141 32 144 19 2 -8 1 -64 -1
-125z"/>
<path d="M5052 2360 c-100 -27 -162 -63 -249 -143 l-73 -69 0 101 0 101 -180
0 -180 0 0 -730 0 -730 193 2 192 3 6 470 c4 314 9 482 17 505 32 96 114 176
207 201 22 6 70 9 107 7 83 -5 140 -40 175 -109 34 -65 42 -202 43 -682 l0
-397 193 2 192 3 0 525 c0 381 -4 544 -13 593 -43 230 -196 353 -452 363 -83
3 -120 0 -178 -16z"/>
<path d="M3590 1620 l0 -730 195 0 195 0 0 730 0 730 -195 0 -195 0 0 -730z"/>
<path d="M6080 1620 l0 -730 195 0 195 0 0 730 0 730 -195 0 -195 0 0 -730z"/>
<path d="M4705 727 c-166 -75 -176 -331 -18 -424 38 -22 53 -25 112 -21 55 3
75 9 104 31 34 25 77 110 64 123 -11 12 -37 -5 -37 -24 0 -26 -35 -69 -70 -87
-41 -21 -118 -19 -157 5 -115 70 -125 264 -17 347 36 27 103 40 148 29 32 -8
85 -53 97 -83 9 -25 39 -32 39 -9 0 20 -41 76 -73 100 -35 26 -147 33 -192 13z"/>
<path d="M6384 726 c-40 -18 -88 -77 -103 -125 -29 -100 2 -234 65 -278 86
-60 194 -55 264 11 53 49 65 82 65 176 0 100 -22 151 -81 197 -31 23 -48 28
-108 31 -45 1 -82 -3 -102 -12z m166 -31 c32 -17 74 -67 85 -104 15 -49 7
-147 -15 -190 -50 -100 -189 -118 -267 -35 -61 65 -67 208 -11 280 49 61 142
83 208 49z"/>
<path d="M7425 726 c-40 -17 -90 -75 -105 -121 -19 -59 -9 -184 19 -229 66
-107 216 -126 312 -39 107 97 83 320 -41 383 -46 23 -139 26 -185 6z m183 -42
c45 -33 72 -99 72 -173 0 -123 -61 -195 -165 -195 -119 0 -191 101 -171 238 8
54 40 102 86 134 29 20 44 23 93 20 36 -3 67 -12 85 -24z"/>
<path d="M8014 721 c-128 -58 -167 -251 -73 -364 41 -50 96 -77 158 -77 61 0
97 13 134 48 l27 26 0 -32 c0 -22 5 -32 15 -32 12 0 15 19 15 110 l0 110 -95
0 c-78 0 -95 -3 -95 -15 0 -12 16 -15 80 -15 79 0 80 0 80 -26 0 -76 -72 -144
-153 -144 -58 0 -94 17 -135 64 -60 69 -66 176 -14 250 40 58 74 79 136 84 67
5 127 -24 151 -75 16 -33 45 -46 45 -19 0 25 -46 81 -85 103 -50 29 -133 30
-191 4z"/>
<path d="M9274 721 c-44 -27 -64 -59 -64 -102 0 -67 56 -109 166 -124 94 -12
142 -63 115 -121 -29 -65 -152 -87 -210 -38 -17 14 -35 40 -39 57 -5 19 -16
33 -27 35 -15 4 -17 -1 -11 -29 14 -75 76 -119 166 -119 107 0 186 77 160 155
-19 57 -68 86 -170 99 -119 16 -159 107 -70 159 61 36 173 10 194 -45 13 -35
51 -41 41 -5 -10 32 -45 67 -82 83 -47 20 -132 18 -169 -5z"/>
<path d="M3590 715 c0 -12 16 -15 80 -15 l80 0 0 -205 c0 -198 1 -205 20 -205
19 0 20 7 20 205 l0 205 75 0 c60 0 75 3 75 15 0 13 -26 15 -175 15 -149 0
-175 -2 -175 -15z"/>
<path d="M4120 510 l0 -220 150 0 c127 0 150 2 150 15 0 13 -22 15 -135 15
l-135 0 0 90 0 90 125 0 c104 0 125 2 125 15 0 13 -21 15 -125 15 l-125 0 0
85 0 85 135 0 c113 0 135 2 135 15 0 13 -23 15 -150 15 l-150 0 0 -220z"/>
<path d="M5150 510 c0 -213 1 -220 20 -220 19 0 20 7 20 110 l0 110 135 0 135
0 0 -110 c0 -103 1 -110 20 -110 19 0 20 7 20 220 0 213 -1 220 -20 220 -19 0
-20 -7 -20 -95 l0 -95 -135 0 -135 0 0 95 c0 88 -1 95 -20 95 -19 0 -20 -7
-20 -220z"/>
<path d="M5720 510 c0 -187 2 -220 15 -220 12 0 15 31 17 195 l3 194 135 -194
c108 -157 139 -195 157 -195 l23 0 0 220 c0 187 -2 220 -15 220 -12 0 -15 -31
-17 -197 l-3 -197 -135 197 c-109 160 -138 197 -157 197 l-23 0 0 -220z"/>
<path d="M6880 510 l0 -220 140 0 c118 0 140 2 140 15 0 13 -21 15 -125 15
l-125 0 0 205 c0 176 -2 205 -15 205 -13 0 -15 -31 -15 -220z"/>
<path d="M8490 510 c0 -213 1 -220 20 -220 19 0 20 7 20 220 0 213 -1 220 -20
220 -19 0 -20 -7 -20 -220z"/>
<path d="M8750 510 l0 -220 150 0 c127 0 150 2 150 15 0 13 -22 15 -135 15
l-135 0 0 90 0 90 125 0 c104 0 125 2 125 15 0 13 -21 15 -125 15 l-125 0 0
85 0 85 135 0 c113 0 135 2 135 15 0 13 -23 15 -150 15 l-150 0 0 -220z"/>
</g>
</svg>
