<?xml version="1.0" standalone="no"?>
<!DOCTYPE svg PUBLIC "-//W3C//DTD SVG 20010904//EN"
 "http://www.w3.org/TR/2001/REC-SVG-20010904/DTD/svg10.dtd">
<svg version="1.0" xmlns="http://www.w3.org/2000/svg"
 width="1080.000000pt" height="1080.000000pt" viewBox="0 0 1080.000000 1080.000000"
 preserveAspectRatio="xMidYMid meet">
<metadata>
Created by potrace 1.14, written by Peter Selinger 2001-2017
</metadata>
<g transform="translate(0.000000,1080.000000) scale(0.100000,-0.100000)"
fill="#000000" stroke="none">
<path d="M4143 6647 c-2 -4 16 -26 41 -49 l47 -40 -3 -121 -3 -120 -45 -4
c-60 -4 -138 -22 -175 -41 -123 -61 -179 -177 -135 -278 35 -80 149 -101 233
-42 28 20 28 44 -1 33 -26 -10 -82 15 -95 43 -35 71 14 144 118 175 28 8 61
13 75 12 l25 -2 3 -626 2 -627 80 0 c44 0 80 3 81 8 0 4 1 283 1 620 1 558 2
612 17 607 53 -21 148 -48 226 -64 119 -25 319 -22 418 7 37 10 68 18 68 16 1
-2 2 -271 3 -596 l1 -593 82 -3 81 -3 0 791 c1 434 3 799 7 809 3 10 21 29 40
42 19 13 35 31 35 39 0 13 -25 15 -165 15 -119 0 -165 -3 -165 -12 0 -6 19
-27 42 -46 l42 -35 1 -152 c0 -93 -3 -154 -10 -160 -5 -4 -39 -18 -75 -30
-135 -46 -324 -32 -535 38 l-110 37 -1 130 -2 130 46 43 c25 23 42 45 39 49
-10 9 -328 10 -334 0z"/>
<path d="M630 6600 c0 -19 6 -20 215 -20 l215 0 0 -805 0 -805 55 0 55 0 1 38
c0 20 1 382 1 804 l0 768 217 2 c184 3 216 5 216 18 0 13 -62 15 -487 18 -483
2 -488 2 -488 -18z"/>
<path d="M1589 6373 c0 -10 0 -1186 0 -1239 l1 -40 60 0 60 0 0 358 0 358 54
53 c65 65 127 102 198 121 144 37 269 -32 297 -165 7 -30 11 -185 11 -388 l0
-338 60 1 c57 1 60 2 61 26 0 14 1 168 1 342 1 236 -2 329 -12 365 -19 67 -96
143 -173 172 -58 21 -157 28 -222 16 -87 -16 -182 -69 -242 -135 l-33 -35 0
268 0 267 -60 0 c-33 0 -60 -3 -61 -7z"/>
<path d="M9808 6025 c-2 -1 -29 -5 -61 -9 -83 -8 -192 -62 -252 -123 l-50 -51
3 84 3 84 -38 1 c-21 0 -48 2 -60 3 -18 2 -23 -3 -24 -23 -1 -32 -1 -836 0
-873 1 -26 3 -27 54 -25 28 1 55 7 59 12 4 6 7 147 7 315 0 168 0 325 0 348 1
40 6 49 59 100 166 164 388 170 479 14 l28 -47 5 -370 5 -370 50 -1 c28 0 55
3 60 7 7 5 10 127 10 356 -1 329 -3 350 -22 393 -36 78 -105 134 -198 159 -40
10 -112 20 -117 16z"/>
<path d="M2919 6005 c-71 -19 -160 -71 -216 -126 -183 -180 -187 -474 -10
-651 145 -146 377 -182 559 -86 64 34 91 60 86 82 -2 11 -18 4 -63 -30 -173
-130 -386 -106 -508 57 -35 47 -34 69 6 96 47 32 91 49 250 94 315 89 388 138
404 268 19 160 -151 301 -371 307 -50 1 -112 -4 -137 -11z m234 -30 c50 -21
114 -80 139 -129 24 -47 32 -147 16 -198 -23 -75 -76 -112 -228 -158 -58 -17
-149 -45 -202 -61 -56 -17 -110 -40 -128 -55 -17 -15 -32 -25 -34 -23 -2 2 -9
31 -17 64 -45 188 25 420 158 521 81 61 204 78 296 39z"/>
<path d="M5829 6010 c-163 -40 -300 -169 -349 -328 -52 -167 -11 -333 112
-455 104 -103 220 -149 362 -143 152 7 202 37 429 256 59 58 129 117 155 132
48 28 249 96 422 143 52 14 112 37 133 51 l37 24 0 -250 0 -251 -54 -25 c-111
-51 -267 -68 -363 -39 -113 34 -165 100 -167 216 -1 40 -5 69 -11 69 -6 0 -32
-22 -59 -49 l-48 -48 12 -42 c45 -168 347 -238 611 -141 l78 28 3 -31 c3 -31
4 -32 60 -33 34 0 59 4 61 10 2 6 3 167 2 357 l-1 345 -25 50 c-108 207 -502
219 -677 19 -27 -30 -32 -44 -32 -85 0 -28 2 -50 4 -50 2 0 15 17 29 38 63 94
176 182 264 208 91 27 194 3 250 -58 55 -59 80 -176 46 -214 -26 -29 -136 -74
-213 -88 -48 -8 -226 -55 -282 -75 -98 -34 -149 -71 -298 -219 -118 -116 -158
-150 -216 -178 -133 -66 -275 -55 -380 31 -24 20 -56 57 -71 82 l-27 46 30 24
c46 38 122 66 344 128 235 65 320 135 322 267 2 121 -102 229 -263 271 -63 16
-178 20 -230 7z m229 -39 c121 -62 175 -176 149 -313 -19 -93 -90 -133 -382
-214 -121 -33 -153 -46 -182 -73 -12 -12 -24 -21 -27 -21 -11 0 -27 74 -32
150 -11 165 43 318 146 413 37 35 74 59 106 69 67 21 169 16 222 -11z"/>
<path d="M7422 6012 c-17 -3 -22 -8 -17 -20 3 -9 43 -111 87 -227 44 -115 108
-282 142 -370 35 -88 75 -192 90 -231 l27 -72 62 2 61 2 33 79 c18 44 33 83
33 87 0 5 9 27 19 51 15 32 163 415 261 673 8 21 7 25 -6 22 -10 -2 -27 -31
-44 -73 -14 -38 -86 -225 -160 -415 -73 -190 -137 -353 -142 -364 -8 -15 -17
-1 -50 85 -22 57 -62 160 -89 229 -27 69 -84 217 -127 330 l-79 205 -39 5
c-21 3 -49 4 -62 2z"/>
<path d="M8639 6005 c-226 -62 -374 -271 -355 -502 27 -336 410 -523 712 -348
49 29 67 49 62 70 -2 12 -14 7 -53 -22 -28 -21 -64 -44 -80 -52 -17 -7 -41
-19 -54 -25 -13 -6 -65 -11 -115 -11 -75 0 -99 5 -140 24 -52 26 -120 89 -149
139 -17 30 -17 31 5 52 13 12 39 30 58 40 33 17 68 28 310 100 225 67 299 127
305 249 9 161 -151 289 -370 296 -51 2 -110 -2 -136 -10z m249 -39 c115 -58
169 -177 140 -308 -10 -48 -28 -73 -73 -104 -26 -18 -119 -57 -165 -70 -38
-10 -166 -45 -175 -48 -5 -2 -23 -6 -40 -11 -42 -11 -99 -41 -114 -59 -21 -25
-28 -19 -41 35 -50 208 23 442 169 544 85 58 208 67 299 21z"/>
<path d="M9276 4540 c15 -22 33 -40 40 -40 18 0 18 2 -7 44 -12 22 -29 36 -40
36 -18 0 -17 -3 7 -40z"/>
<path d="M2120 4391 c0 -145 2 -171 15 -171 12 0 15 14 15 64 l0 64 72 1 c81
1 113 16 132 63 18 41 2 104 -32 126 -16 11 -54 17 -113 20 l-89 4 0 -171z
m185 114 c39 -38 32 -96 -14 -119 -21 -10 -91 -14 -133 -7 -5 0 -8 35 -8 76
l0 75 65 0 c57 0 69 -3 90 -25z"/>
<path d="M4700 4540 c0 -23 25 -27 33 -6 7 16 -1 26 -20 26 -7 0 -13 -9 -13
-20z"/>
<path d="M6110 4390 c0 -133 3 -171 13 -167 9 3 12 45 12 167 0 122 -3 164
-12 168 -10 3 -13 -35 -13 -168z"/>
<path d="M7990 4390 c0 -146 2 -169 15 -164 8 4 15 15 15 26 0 20 1 20 18 -2
11 -13 33 -23 61 -27 82 -11 134 39 134 128 0 99 -117 157 -185 92 l-28 -27 0
72 c0 57 -3 72 -15 72 -13 0 -15 -26 -15 -170z m193 19 c9 -12 18 -27 18 -35
1 -8 2 -20 3 -26 3 -21 -14 -65 -32 -81 -42 -39 -120 -19 -143 35 -21 52 10
124 61 140 24 8 74 -10 93 -33z"/>
<path d="M8437 4545 c-7 -18 6 -27 26 -19 18 7 11 34 -8 34 -7 0 -15 -7 -18
-15z"/>
<path d="M8699 4533 c0 -15 -1 -91 -1 -168 -1 -121 1 -140 15 -143 14 -3 16
15 14 164 -1 123 -5 168 -14 172 -8 2 -13 -7 -14 -25z"/>
<path d="M8954 4549 c-8 -14 11 -33 25 -25 6 4 11 14 11 22 0 16 -26 19 -36 3z"/>
<path d="M4390 4506 c0 -20 -3 -36 -7 -37 -60 -6 -72 -25 -22 -32 23 -4 24 -6
26 -102 1 -110 5 -117 67 -113 54 4 61 28 8 28 -23 0 -42 5 -44 13 -4 10 -3
146 1 169 0 4 17 7 36 6 19 -1 38 2 42 6 11 11 -15 23 -43 20 -27 -3 -38 10
-39 45 0 13 -6 26 -12 29 -9 2 -13 -8 -13 -32z"/>
<path d="M2650 4463 c-8 -3 -23 -12 -32 -21 -16 -14 -18 -13 -18 1 0 10 -6 17
-13 17 -18 0 -18 -231 1 -238 13 -4 14 1 14 93 1 83 18 113 69 121 22 4 38 11
36 18 -4 13 -35 18 -57 9z"/>
<path d="M2960 4463 c-63 -25 -95 -108 -67 -176 38 -89 179 -92 221 -3 28 59
16 126 -31 160 -26 19 -96 30 -123 19z m107 -46 c32 -29 40 -82 18 -123 -36
-66 -124 -67 -160 0 -33 60 -4 127 61 145 34 9 51 5 81 -22z"/>
<path d="M3405 4459 c-11 -7 -23 -17 -27 -23 -5 -7 -8 -4 -8 7 0 11 -6 17 -12
14 -14 -4 -19 -220 -5 -233 15 -15 20 8 20 86 -1 65 3 85 19 105 24 31 68 33
94 4 18 -20 21 -45 24 -176 0 -14 5 -21 13 -18 8 4 12 31 13 90 0 96 16 125
66 125 53 0 68 -29 68 -131 0 -68 3 -90 13 -87 16 6 22 162 7 199 -21 51 -95
65 -135 25 -23 -23 -24 -23 -42 -4 -24 23 -81 32 -108 17z"/>
<path d="M3954 4437 c-80 -73 -43 -206 61 -217 46 -5 67 2 103 34 34 32 37 38
36 89 -1 85 -45 127 -131 127 -24 0 -43 -9 -69 -33z m143 -24 c24 -25 33 -43
33 -68 0 -41 -39 -90 -76 -98 -87 -16 -148 88 -93 157 41 52 89 55 136 9z"/>
<path d="M4703 4348 c1 -87 6 -123 15 -126 19 -6 17 234 -3 241 -12 5 -14 -12
-12 -115z"/>
<path d="M5002 4450 c-55 -34 -71 -100 -42 -171 32 -75 165 -79 214 -5 20 32
21 98 1 136 -30 58 -112 77 -173 40z m143 -51 c24 -45 19 -96 -10 -123 -66
-61 -158 -24 -158 63 0 52 24 88 66 99 43 12 84 -4 102 -39z"/>
<path d="M5415 4462 c-6 -4 -10 -56 -10 -122 0 -95 3 -115 15 -115 12 0 15 16
15 80 1 44 7 90 13 102 23 42 101 43 123 2 6 -12 12 -58 13 -102 1 -54 5 -82
14 -85 9 -3 12 20 12 93 0 93 -1 97 -29 126 -33 33 -67 37 -111 14 -25 -13
-30 -13 -37 0 -5 8 -13 11 -18 7z"/>
<path d="M6433 4453 c-14 -9 -23 -11 -23 -4 0 6 -7 11 -15 11 -13 0 -15 -17
-13 -117 2 -82 7 -118 16 -121 9 -3 12 19 12 87 0 103 15 131 69 131 44 0 55
-23 61 -124 6 -108 24 -121 28 -21 4 115 18 145 71 145 50 0 66 -31 66 -128 0
-48 3 -86 8 -84 4 1 11 2 15 2 5 0 8 40 7 89 -2 105 -17 137 -69 146 -33 7
-73 -6 -87 -28 -4 -6 -19 -1 -37 12 -35 25 -78 26 -109 4z"/>
<path d="M6966 4462 c-2 -4 -4 -60 -5 -123 0 -94 3 -116 15 -116 14 0 15 5 16
97 0 88 18 120 69 120 44 0 63 -32 65 -113 1 -40 3 -80 3 -89 1 -10 7 -15 14
-12 10 3 13 26 12 85 -2 93 16 129 64 129 54 0 65 -19 71 -122 6 -119 24 -115
27 6 1 86 0 90 -27 118 -35 34 -76 37 -114 7 -25 -20 -28 -20 -45 -5 -36 33
-109 29 -133 -8 -5 -7 -8 -5 -8 6 0 19 -16 33 -24 20z"/>
<path d="M7605 4461 c-89 -39 -99 -182 -16 -226 67 -34 136 -16 170 46 46 82
0 177 -90 185 -24 2 -53 0 -64 -5z m117 -48 c55 -59 13 -166 -66 -166 -68 0
-110 57 -92 128 18 69 108 91 158 38z"/>
<path d="M9262 4455 c-46 -20 -73 -82 -60 -138 13 -62 46 -89 111 -95 46 -4
57 -1 82 20 19 16 25 29 20 38 -6 10 -10 10 -20 -3 -16 -23 -58 -37 -92 -31
-32 5 -73 46 -73 73 0 16 11 18 96 19 53 0 98 3 101 6 12 11 -9 74 -31 95 -30
28 -91 36 -134 16z m115 -40 c39 -44 31 -55 -39 -56 -70 -1 -101 1 -108 8 -2
2 2 16 11 31 30 54 97 63 136 17z"/>
<path d="M9720 4463 c-8 -3 -23 -12 -32 -21 -16 -14 -18 -13 -18 1 0 10 -6 17
-14 17 -20 0 -18 -231 2 -237 9 -4 12 17 12 80 0 75 3 87 25 111 16 17 34 26
55 26 21 0 30 4 28 13 -5 13 -35 19 -58 10z"/>
<path d="M10004 4451 c-40 -24 -58 -69 -51 -128 7 -65 49 -103 112 -103 53 0
92 16 101 42 8 26 0 32 -19 14 -22 -23 -57 -34 -92 -30 -33 3 -75 45 -75 74 0
17 8 19 83 19 122 -1 117 -2 117 27 0 84 -99 132 -176 85z m98 -10 c31 -5 63
-80 36 -82 -31 -2 -153 3 -156 6 -10 10 13 49 39 64 25 16 46 19 81 12z"/>
<path d="M8443 4343 c1 -83 6 -118 15 -121 9 -3 12 25 12 117 0 99 -3 121 -15
121 -12 0 -14 -20 -12 -117z"/>
<path d="M8957 4353 c2 -141 1 -135 16 -130 9 3 12 36 12 120 0 98 -2 117 -15
117 -13 0 -15 -18 -13 -107z"/>
</g>
</svg>
