<?xml version="1.0" standalone="no"?>
<!DOCTYPE svg PUBLIC "-//W3C//DTD SVG 20010904//EN"
 "http://www.w3.org/TR/2001/REC-SVG-20010904/DTD/svg10.dtd">
<svg version="1.0" xmlns="http://www.w3.org/2000/svg"
 width="2835.000000pt" height="2835.000000pt" viewBox="0 0 2835.000000 2835.000000"
 preserveAspectRatio="xMidYMid meet">
<metadata>
Created by potrace 1.14, written by Peter Selinger 2001-2017
</metadata>
<g transform="translate(0.000000,2835.000000) scale(0.100000,-0.100000)"
fill="#000000" stroke="none">
<path d="M4217 27634 c-1 -1 -47 -5 -102 -8 -94 -6 -142 -10 -225 -22 -19 -3
-53 -7 -75 -10 -22 -3 -85 -14 -140 -25 -55 -11 -111 -23 -125 -25 -99 -19
-385 -107 -520 -161 -218 -87 -463 -213 -645 -332 -73 -47 -226 -155 -260
-183 -11 -9 -40 -33 -65 -54 -158 -129 -354 -320 -478 -467 -381 -451 -647
-978 -775 -1537 -20 -85 -38 -173 -42 -194 -3 -21 -7 -48 -10 -60 -2 -12 -7
-41 -10 -66 -7 -64 -14 -118 -22 -170 -4 -25 -8 -1713 -10 -3752 l-3 -3708
1028 0 1029 0 2 823 c0 452 3 883 5 957 10 278 32 689 41 750 2 14 7 66 10
115 4 50 8 97 10 105 2 8 6 51 11 95 4 44 8 82 9 85 1 3 5 37 9 75 5 39 10 79
12 90 3 11 7 38 9 60 5 38 45 279 50 300 1 6 5 28 9 50 14 72 47 219 62 278 9
32 17 67 19 78 2 12 7 29 10 39 3 10 7 27 9 37 8 39 79 258 116 357 34 90 59
148 118 276 80 173 260 449 407 626 126 152 359 382 481 476 16 12 31 25 34
28 3 3 23 18 45 35 22 16 42 32 45 35 11 13 211 150 340 232 182 116 523 290
735 373 103 41 378 138 425 150 8 2 40 11 70 20 30 9 62 17 70 19 8 3 69 18
134 35 66 17 133 34 150 37 17 3 51 10 76 15 25 6 56 13 70 15 14 2 39 7 55
11 17 4 35 7 40 8 6 0 30 4 55 9 61 10 101 17 125 21 150 21 171 24 225 30 25
3 79 9 120 15 41 5 109 12 150 15 41 4 95 8 120 10 244 20 1034 28 1305 12
165 -9 279 -17 350 -22 33 -3 92 -7 130 -10 75 -6 99 -8 245 -24 163 -18 194
-21 220 -26 14 -2 50 -7 80 -10 30 -4 66 -8 80 -10 14 -3 89 -14 165 -25 141
-21 314 -50 415 -70 30 -6 78 -15 105 -20 78 -14 101 -19 250 -52 77 -16 147
-31 155 -33 147 -30 819 -212 913 -247 18 -7 26 -16 23 -27 -3 -9 -21 -101
-41 -206 -20 -104 -43 -224 -51 -265 -9 -41 -17 -86 -19 -100 -3 -14 -6 -34
-9 -45 -5 -23 -52 -266 -60 -310 -3 -16 -8 -43 -11 -60 -3 -16 -15 -73 -25
-125 -10 -52 -21 -106 -24 -120 -3 -21 -14 -78 -61 -320 -3 -14 -9 -48 -15
-76 -6 -28 -13 -64 -16 -80 -11 -66 -55 -288 -80 -409 -2 -11 -8 -45 -14 -75
-6 -30 -12 -66 -15 -80 -3 -14 -23 -119 -45 -235 -23 -115 -49 -253 -60 -305
-10 -52 -21 -108 -24 -125 -5 -35 -28 -149 -30 -152 -1 -1 -29 4 -61 12 -112
26 -400 84 -495 101 -52 9 -99 17 -105 18 -5 2 -32 6 -60 10 -27 4 -61 10 -75
12 -14 2 -41 7 -60 9 -19 3 -48 7 -65 10 -16 2 -56 7 -88 10 -32 4 -68 8 -80
11 -12 2 -51 6 -87 9 -36 3 -76 8 -90 10 -14 2 -63 7 -110 10 -47 3 -111 8
-143 10 -186 16 -692 23 -787 11 -25 -3 -72 -8 -105 -11 -58 -5 -117 -13 -160
-21 -11 -2 -45 -8 -75 -14 -116 -21 -214 -50 -333 -97 -421 -166 -648 -447
-771 -953 -14 -58 -28 -121 -31 -140 -3 -19 -8 -42 -10 -50 -2 -8 -7 -35 -10
-60 -3 -25 -8 -56 -10 -70 -2 -14 -7 -50 -10 -80 -3 -30 -8 -66 -10 -80 -4
-32 -14 -165 -21 -295 -3 -55 -6 -415 -6 -800 l0 -700 2888 0 2889 0 1 715 c2
1015 12 1380 49 1805 3 33 7 89 10 125 3 36 7 81 10 100 2 19 6 58 9 85 3 28
8 73 11 100 3 28 7 61 9 75 3 14 7 48 11 75 10 81 15 117 25 170 5 28 12 67
15 87 9 70 66 353 80 403 8 28 17 61 19 75 20 102 116 404 171 540 96 235 211
448 342 633 163 228 355 435 601 649 101 88 300 230 522 373 236 152 619 333
942 444 193 67 607 181 712 196 18 3 61 11 156 30 14 3 39 7 55 10 17 3 41 7
55 10 14 2 45 7 70 10 25 3 74 11 110 16 36 6 79 12 95 14 79 8 152 17 172 20
13 2 66 7 119 10 53 4 109 9 123 10 212 27 1176 27 1501 0 25 -2 89 -6 143
-10 53 -3 107 -8 120 -10 12 -2 62 -6 110 -10 48 -3 96 -8 105 -10 9 -1 49 -6
87 -9 39 -4 81 -9 95 -11 14 -2 48 -6 75 -10 28 -3 66 -8 85 -10 19 -3 55 -7
80 -10 25 -3 70 -9 100 -15 30 -5 75 -12 100 -15 49 -7 64 -9 190 -31 47 -8
99 -17 115 -20 17 -3 62 -11 100 -19 39 -8 86 -17 105 -20 19 -3 54 -10 78
-16 23 -5 59 -12 80 -15 20 -3 40 -8 43 -10 3 -2 21 -6 40 -9 19 -3 52 -11 74
-17 22 -5 51 -12 65 -15 14 -2 70 -15 125 -29 55 -13 110 -26 122 -29 13 -2
26 -6 31 -9 5 -3 19 -7 33 -9 58 -11 361 -96 547 -153 66 -21 82 -29 78 -42
-4 -15 -17 -79 -31 -152 -3 -14 -23 -117 -45 -230 -21 -113 -42 -221 -45 -240
-3 -19 -10 -53 -15 -75 -12 -57 -30 -148 -36 -181 -2 -16 -11 -63 -19 -104
-20 -100 -23 -116 -35 -180 -6 -30 -12 -66 -15 -80 -3 -14 -10 -50 -16 -80 -5
-30 -19 -98 -29 -150 -11 -52 -21 -106 -24 -120 -2 -14 -14 -72 -25 -130 -11
-58 -22 -116 -25 -130 -2 -14 -7 -36 -10 -50 -3 -14 -8 -36 -10 -50 -3 -14
-17 -88 -31 -165 -15 -77 -29 -151 -31 -165 -3 -14 -9 -44 -15 -68 -5 -23 -12
-59 -15 -80 -3 -20 -9 -53 -14 -72 -5 -19 -11 -51 -14 -70 -3 -19 -8 -46 -11
-60 -2 -14 -24 -122 -47 -240 -23 -118 -42 -216 -43 -217 0 -1 -28 4 -61 12
-34 8 -72 16 -85 19 -13 2 -46 10 -74 16 -27 6 -61 14 -75 16 -14 2 -45 9 -70
14 -25 5 -58 12 -75 15 -16 2 -55 9 -85 15 -83 17 -152 29 -208 36 -20 2 -48
6 -61 9 -13 2 -45 7 -70 11 -47 6 -56 7 -126 17 -59 9 -135 18 -176 22 -20 2
-63 6 -95 9 -122 13 -280 24 -424 32 -113 6 -568 5 -625 -1 -27 -2 -75 -7
-105 -10 -30 -3 -84 -11 -120 -16 -36 -6 -78 -13 -95 -16 -16 -2 -48 -9 -70
-14 -22 -5 -48 -11 -58 -14 -10 -2 -27 -7 -37 -10 -10 -3 -27 -8 -37 -10 -88
-17 -303 -117 -416 -192 -90 -61 -221 -189 -277 -272 -109 -162 -215 -441
-254 -666 -3 -16 -10 -57 -15 -90 -6 -33 -14 -80 -17 -105 -3 -25 -7 -56 -10
-70 -2 -14 -7 -56 -10 -95 -3 -38 -7 -83 -9 -100 -11 -82 -17 -445 -19 -1039
l-1 -656 1668 0 1667 0 0 -1753 0 -1754 -1652 -1 c-909 0 -1660 -1 -1668 -1
-13 -1 -15 -710 -14 -6324 l2 -6322 1746 0 c1408 0 1745 2 1741 13 -2 7 -22
38 -43 70 -301 446 -570 1134 -647 1657 -8 53 -16 103 -20 126 -2 10 -7 49
-10 86 -4 37 -8 79 -10 92 -24 147 -24 722 -1 861 3 14 7 50 10 80 5 53 22
179 32 230 3 14 7 39 10 55 2 17 11 62 19 100 9 39 17 79 19 90 2 11 12 49 21
85 9 36 18 72 20 80 6 28 64 216 75 246 7 16 13 36 15 44 2 8 23 67 48 130 98
252 197 456 322 665 26 44 53 89 59 100 10 18 40 63 86 130 8 12 24 35 35 51
28 41 190 255 212 279 10 12 42 50 72 85 72 86 347 360 441 441 41 35 77 67
80 70 4 4 266 202 315 237 144 104 431 265 660 372 136 64 443 181 535 205 31
9 87 24 140 39 68 20 263 65 310 72 19 3 42 7 50 9 8 2 29 6 45 9 70 10 121
19 137 21 9 2 48 7 85 10 37 4 75 9 83 10 128 24 766 24 889 0 9 -2 44 -6 76
-10 33 -3 85 -10 115 -15 30 -5 71 -11 90 -14 28 -4 168 -31 265 -52 11 -2 79
-20 150 -39 72 -20 137 -38 145 -40 8 -2 15 -4 15 -5 0 -1 7 -3 15 -5 22 -5
250 -85 285 -100 17 -7 80 -34 140 -60 222 -95 430 -206 640 -343 136 -88 307
-211 359 -257 6 -6 45 -38 86 -72 41 -34 98 -82 125 -108 28 -25 58 -54 68
-62 16 -16 17 394 14 8958 -1 4936 -6 8985 -10 8999 -4 14 -9 52 -12 85 -13
141 -62 385 -117 575 -148 516 -426 1021 -783 1419 -503 561 -1163 956 -1880
1126 -100 24 -112 26 -215 45 -135 24 -238 37 -370 46 -76 6 -20027 13 -20033
8z"/>
<path d="M719 13349 c-11 -6 -7 -9263 3 -9319 4 -19 9 -57 12 -85 25 -237 81
-489 165 -743 235 -705 686 -1327 1290 -1776 103 -77 296 -206 307 -206 3 0
18 -8 32 -18 15 -11 75 -44 133 -76 l107 -56 0 6140 c0 3377 -3 6140 -7 6141
-34 4 -2035 3 -2042 -2z"/>
<path d="M7238 13349 c-7 -5 -10 -2008 -10 -6305 1 -3465 1 -6308 1 -6319 1
-20 7 -20 2889 -20 l2887 0 1 6323 c2 4738 -1 6322 -10 6323 -64 5 -5751 2
-5758 -2z"/>
</g>
</svg>
