<svg xmlns="http://www.w3.org/2000/svg" xmlns:xlink="http://www.w3.org/1999/xlink" version="1.1" width="320px" height="320px" viewBox="0 0 320 320"><defs><rect id="block" width="7.0000000000" height="7.0000000000" fill="#000000" fill-opacity="1"/></defs><rect x="0" y="0" width="320" height="320" fill="#ffffff" fill-opacity="1"/><use x="16.0000000000" y="16.0000000000" xlink:href="#block"/><use x="23.0000000000" y="16.0000000000" xlink:href="#block"/><use x="30.0000000000" y="16.0000000000" xlink:href="#block"/><use x="37.0000000000" y="16.0000000000" xlink:href="#block"/><use x="44.0000000000" y="16.0000000000" xlink:href="#block"/><use x="51.0000000000" y="16.0000000000" xlink:href="#block"/><use x="58.0000000000" y="16.0000000000" xlink:href="#block"/><use x="79.0000000000" y="16.0000000000" xlink:href="#block"/><use x="100.0000000000" y="16.0000000000" xlink:href="#block"/><use x="114.0000000000" y="16.0000000000" xlink:href="#block"/><use x="121.0000000000" y="16.0000000000" xlink:href="#block"/><use x="128.0000000000" y="16.0000000000" xlink:href="#block"/><use x="142.0000000000" y="16.0000000000" xlink:href="#block"/><use x="156.0000000000" y="16.0000000000" xlink:href="#block"/><use x="163.0000000000" y="16.0000000000" xlink:href="#block"/><use x="177.0000000000" y="16.0000000000" xlink:href="#block"/><use x="205.0000000000" y="16.0000000000" xlink:href="#block"/><use x="212.0000000000" y="16.0000000000" xlink:href="#block"/><use x="254.0000000000" y="16.0000000000" xlink:href="#block"/><use x="261.0000000000" y="16.0000000000" xlink:href="#block"/><use x="268.0000000000" y="16.0000000000" xlink:href="#block"/><use x="275.0000000000" y="16.0000000000" xlink:href="#block"/><use x="282.0000000000" y="16.0000000000" xlink:href="#block"/><use x="289.0000000000" y="16.0000000000" xlink:href="#block"/><use x="296.0000000000" y="16.0000000000" xlink:href="#block"/><use x="16.0000000000" y="23.0000000000" xlink:href="#block"/><use x="58.0000000000" y="23.0000000000" xlink:href="#block"/><use x="72.0000000000" y="23.0000000000" xlink:href="#block"/><use x="79.0000000000" y="23.0000000000" xlink:href="#block"/><use x="86.0000000000" y="23.0000000000" xlink:href="#block"/><use x="142.0000000000" y="23.0000000000" xlink:href="#block"/><use x="156.0000000000" y="23.0000000000" xlink:href="#block"/><use x="170.0000000000" y="23.0000000000" xlink:href="#block"/><use x="177.0000000000" y="23.0000000000" xlink:href="#block"/><use x="184.0000000000" y="23.0000000000" xlink:href="#block"/><use x="191.0000000000" y="23.0000000000" xlink:href="#block"/><use x="219.0000000000" y="23.0000000000" xlink:href="#block"/><use x="240.0000000000" y="23.0000000000" xlink:href="#block"/><use x="254.0000000000" y="23.0000000000" xlink:href="#block"/><use x="296.0000000000" y="23.0000000000" xlink:href="#block"/><use x="16.0000000000" y="30.0000000000" xlink:href="#block"/><use x="30.0000000000" y="30.0000000000" xlink:href="#block"/><use x="37.0000000000" y="30.0000000000" xlink:href="#block"/><use x="44.0000000000" y="30.0000000000" xlink:href="#block"/><use x="58.0000000000" y="30.0000000000" xlink:href="#block"/><use x="79.0000000000" y="30.0000000000" xlink:href="#block"/><use x="86.0000000000" y="30.0000000000" xlink:href="#block"/><use x="93.0000000000" y="30.0000000000" xlink:href="#block"/><use x="114.0000000000" y="30.0000000000" xlink:href="#block"/><use x="128.0000000000" y="30.0000000000" xlink:href="#block"/><use x="149.0000000000" y="30.0000000000" xlink:href="#block"/><use x="156.0000000000" y="30.0000000000" xlink:href="#block"/><use x="163.0000000000" y="30.0000000000" xlink:href="#block"/><use x="177.0000000000" y="30.0000000000" xlink:href="#block"/><use x="198.0000000000" y="30.0000000000" xlink:href="#block"/><use x="212.0000000000" y="30.0000000000" xlink:href="#block"/><use x="226.0000000000" y="30.0000000000" xlink:href="#block"/><use x="233.0000000000" y="30.0000000000" xlink:href="#block"/><use x="254.0000000000" y="30.0000000000" xlink:href="#block"/><use x="268.0000000000" y="30.0000000000" xlink:href="#block"/><use x="275.0000000000" y="30.0000000000" xlink:href="#block"/><use x="282.0000000000" y="30.0000000000" xlink:href="#block"/><use x="296.0000000000" y="30.0000000000" xlink:href="#block"/><use x="16.0000000000" y="37.0000000000" xlink:href="#block"/><use x="30.0000000000" y="37.0000000000" xlink:href="#block"/><use x="37.0000000000" y="37.0000000000" xlink:href="#block"/><use x="44.0000000000" y="37.0000000000" xlink:href="#block"/><use x="58.0000000000" y="37.0000000000" xlink:href="#block"/><use x="72.0000000000" y="37.0000000000" xlink:href="#block"/><use x="86.0000000000" y="37.0000000000" xlink:href="#block"/><use x="93.0000000000" y="37.0000000000" xlink:href="#block"/><use x="100.0000000000" y="37.0000000000" xlink:href="#block"/><use x="121.0000000000" y="37.0000000000" xlink:href="#block"/><use x="142.0000000000" y="37.0000000000" xlink:href="#block"/><use x="163.0000000000" y="37.0000000000" xlink:href="#block"/><use x="170.0000000000" y="37.0000000000" xlink:href="#block"/><use x="184.0000000000" y="37.0000000000" xlink:href="#block"/><use x="191.0000000000" y="37.0000000000" xlink:href="#block"/><use x="205.0000000000" y="37.0000000000" xlink:href="#block"/><use x="212.0000000000" y="37.0000000000" xlink:href="#block"/><use x="219.0000000000" y="37.0000000000" xlink:href="#block"/><use x="226.0000000000" y="37.0000000000" xlink:href="#block"/><use x="240.0000000000" y="37.0000000000" xlink:href="#block"/><use x="254.0000000000" y="37.0000000000" xlink:href="#block"/><use x="268.0000000000" y="37.0000000000" xlink:href="#block"/><use x="275.0000000000" y="37.0000000000" xlink:href="#block"/><use x="282.0000000000" y="37.0000000000" xlink:href="#block"/><use x="296.0000000000" y="37.0000000000" xlink:href="#block"/><use x="16.0000000000" y="44.0000000000" xlink:href="#block"/><use x="30.0000000000" y="44.0000000000" xlink:href="#block"/><use x="37.0000000000" y="44.0000000000" xlink:href="#block"/><use x="44.0000000000" y="44.0000000000" xlink:href="#block"/><use x="58.0000000000" y="44.0000000000" xlink:href="#block"/><use x="79.0000000000" y="44.0000000000" xlink:href="#block"/><use x="100.0000000000" y="44.0000000000" xlink:href="#block"/><use x="114.0000000000" y="44.0000000000" xlink:href="#block"/><use x="121.0000000000" y="44.0000000000" xlink:href="#block"/><use x="128.0000000000" y="44.0000000000" xlink:href="#block"/><use x="156.0000000000" y="44.0000000000" xlink:href="#block"/><use x="163.0000000000" y="44.0000000000" xlink:href="#block"/><use x="170.0000000000" y="44.0000000000" xlink:href="#block"/><use x="198.0000000000" y="44.0000000000" xlink:href="#block"/><use x="205.0000000000" y="44.0000000000" xlink:href="#block"/><use x="212.0000000000" y="44.0000000000" xlink:href="#block"/><use x="233.0000000000" y="44.0000000000" xlink:href="#block"/><use x="240.0000000000" y="44.0000000000" xlink:href="#block"/><use x="254.0000000000" y="44.0000000000" xlink:href="#block"/><use x="268.0000000000" y="44.0000000000" xlink:href="#block"/><use x="275.0000000000" y="44.0000000000" xlink:href="#block"/><use x="282.0000000000" y="44.0000000000" xlink:href="#block"/><use x="296.0000000000" y="44.0000000000" xlink:href="#block"/><use x="16.0000000000" y="51.0000000000" xlink:href="#block"/><use x="58.0000000000" y="51.0000000000" xlink:href="#block"/><use x="72.0000000000" y="51.0000000000" xlink:href="#block"/><use x="79.0000000000" y="51.0000000000" xlink:href="#block"/><use x="86.0000000000" y="51.0000000000" xlink:href="#block"/><use x="100.0000000000" y="51.0000000000" xlink:href="#block"/><use x="107.0000000000" y="51.0000000000" xlink:href="#block"/><use x="114.0000000000" y="51.0000000000" xlink:href="#block"/><use x="135.0000000000" y="51.0000000000" xlink:href="#block"/><use x="149.0000000000" y="51.0000000000" xlink:href="#block"/><use x="170.0000000000" y="51.0000000000" xlink:href="#block"/><use x="191.0000000000" y="51.0000000000" xlink:href="#block"/><use x="198.0000000000" y="51.0000000000" xlink:href="#block"/><use x="205.0000000000" y="51.0000000000" xlink:href="#block"/><use x="219.0000000000" y="51.0000000000" xlink:href="#block"/><use x="226.0000000000" y="51.0000000000" xlink:href="#block"/><use x="240.0000000000" y="51.0000000000" xlink:href="#block"/><use x="254.0000000000" y="51.0000000000" xlink:href="#block"/><use x="296.0000000000" y="51.0000000000" xlink:href="#block"/><use x="16.0000000000" y="58.0000000000" xlink:href="#block"/><use x="23.0000000000" y="58.0000000000" xlink:href="#block"/><use x="30.0000000000" y="58.0000000000" xlink:href="#block"/><use x="37.0000000000" y="58.0000000000" xlink:href="#block"/><use x="44.0000000000" y="58.0000000000" xlink:href="#block"/><use x="51.0000000000" y="58.0000000000" xlink:href="#block"/><use x="58.0000000000" y="58.0000000000" xlink:href="#block"/><use x="72.0000000000" y="58.0000000000" xlink:href="#block"/><use x="86.0000000000" y="58.0000000000" xlink:href="#block"/><use x="100.0000000000" y="58.0000000000" xlink:href="#block"/><use x="114.0000000000" y="58.0000000000" xlink:href="#block"/><use x="128.0000000000" y="58.0000000000" xlink:href="#block"/><use x="142.0000000000" y="58.0000000000" xlink:href="#block"/><use x="156.0000000000" y="58.0000000000" xlink:href="#block"/><use x="170.0000000000" y="58.0000000000" xlink:href="#block"/><use x="184.0000000000" y="58.0000000000" xlink:href="#block"/><use x="198.0000000000" y="58.0000000000" xlink:href="#block"/><use x="212.0000000000" y="58.0000000000" xlink:href="#block"/><use x="226.0000000000" y="58.0000000000" xlink:href="#block"/><use x="240.0000000000" y="58.0000000000" xlink:href="#block"/><use x="254.0000000000" y="58.0000000000" xlink:href="#block"/><use x="261.0000000000" y="58.0000000000" xlink:href="#block"/><use x="268.0000000000" y="58.0000000000" xlink:href="#block"/><use x="275.0000000000" y="58.0000000000" xlink:href="#block"/><use x="282.0000000000" y="58.0000000000" xlink:href="#block"/><use x="289.0000000000" y="58.0000000000" xlink:href="#block"/><use x="296.0000000000" y="58.0000000000" xlink:href="#block"/><use x="86.0000000000" y="65.0000000000" xlink:href="#block"/><use x="93.0000000000" y="65.0000000000" xlink:href="#block"/><use x="128.0000000000" y="65.0000000000" xlink:href="#block"/><use x="135.0000000000" y="65.0000000000" xlink:href="#block"/><use x="142.0000000000" y="65.0000000000" xlink:href="#block"/><use x="149.0000000000" y="65.0000000000" xlink:href="#block"/><use x="156.0000000000" y="65.0000000000" xlink:href="#block"/><use x="163.0000000000" y="65.0000000000" xlink:href="#block"/><use x="170.0000000000" y="65.0000000000" xlink:href="#block"/><use x="177.0000000000" y="65.0000000000" xlink:href="#block"/><use x="184.0000000000" y="65.0000000000" xlink:href="#block"/><use x="191.0000000000" y="65.0000000000" xlink:href="#block"/><use x="212.0000000000" y="65.0000000000" xlink:href="#block"/><use x="219.0000000000" y="65.0000000000" xlink:href="#block"/><use x="233.0000000000" y="65.0000000000" xlink:href="#block"/><use x="16.0000000000" y="72.0000000000" xlink:href="#block"/><use x="23.0000000000" y="72.0000000000" xlink:href="#block"/><use x="30.0000000000" y="72.0000000000" xlink:href="#block"/><use x="37.0000000000" y="72.0000000000" xlink:href="#block"/><use x="44.0000000000" y="72.0000000000" xlink:href="#block"/><use x="58.0000000000" y="72.0000000000" xlink:href="#block"/><use x="65.0000000000" y="72.0000000000" xlink:href="#block"/><use x="72.0000000000" y="72.0000000000" xlink:href="#block"/><use x="79.0000000000" y="72.0000000000" xlink:href="#block"/><use x="114.0000000000" y="72.0000000000" xlink:href="#block"/><use x="128.0000000000" y="72.0000000000" xlink:href="#block"/><use x="142.0000000000" y="72.0000000000" xlink:href="#block"/><use x="149.0000000000" y="72.0000000000" xlink:href="#block"/><use x="156.0000000000" y="72.0000000000" xlink:href="#block"/><use x="163.0000000000" y="72.0000000000" xlink:href="#block"/><use x="170.0000000000" y="72.0000000000" xlink:href="#block"/><use x="205.0000000000" y="72.0000000000" xlink:href="#block"/><use x="219.0000000000" y="72.0000000000" xlink:href="#block"/><use x="226.0000000000" y="72.0000000000" xlink:href="#block"/><use x="247.0000000000" y="72.0000000000" xlink:href="#block"/><use x="261.0000000000" y="72.0000000000" xlink:href="#block"/><use x="275.0000000000" y="72.0000000000" xlink:href="#block"/><use x="289.0000000000" y="72.0000000000" xlink:href="#block"/><use x="16.0000000000" y="79.0000000000" xlink:href="#block"/><use x="37.0000000000" y="79.0000000000" xlink:href="#block"/><use x="65.0000000000" y="79.0000000000" xlink:href="#block"/><use x="72.0000000000" y="79.0000000000" xlink:href="#block"/><use x="79.0000000000" y="79.0000000000" xlink:href="#block"/><use x="86.0000000000" y="79.0000000000" xlink:href="#block"/><use x="93.0000000000" y="79.0000000000" xlink:href="#block"/><use x="100.0000000000" y="79.0000000000" xlink:href="#block"/><use x="107.0000000000" y="79.0000000000" xlink:href="#block"/><use x="114.0000000000" y="79.0000000000" xlink:href="#block"/><use x="121.0000000000" y="79.0000000000" xlink:href="#block"/><use x="128.0000000000" y="79.0000000000" xlink:href="#block"/><use x="135.0000000000" y="79.0000000000" xlink:href="#block"/><use x="163.0000000000" y="79.0000000000" xlink:href="#block"/><use x="198.0000000000" y="79.0000000000" xlink:href="#block"/><use x="226.0000000000" y="79.0000000000" xlink:href="#block"/><use x="233.0000000000" y="79.0000000000" xlink:href="#block"/><use x="240.0000000000" y="79.0000000000" xlink:href="#block"/><use x="268.0000000000" y="79.0000000000" xlink:href="#block"/><use x="275.0000000000" y="79.0000000000" xlink:href="#block"/><use x="296.0000000000" y="79.0000000000" xlink:href="#block"/><use x="16.0000000000" y="86.0000000000" xlink:href="#block"/><use x="23.0000000000" y="86.0000000000" xlink:href="#block"/><use x="30.0000000000" y="86.0000000000" xlink:href="#block"/><use x="58.0000000000" y="86.0000000000" xlink:href="#block"/><use x="65.0000000000" y="86.0000000000" xlink:href="#block"/><use x="86.0000000000" y="86.0000000000" xlink:href="#block"/><use x="93.0000000000" y="86.0000000000" xlink:href="#block"/><use x="107.0000000000" y="86.0000000000" xlink:href="#block"/><use x="114.0000000000" y="86.0000000000" xlink:href="#block"/><use x="121.0000000000" y="86.0000000000" xlink:href="#block"/><use x="128.0000000000" y="86.0000000000" xlink:href="#block"/><use x="135.0000000000" y="86.0000000000" xlink:href="#block"/><use x="184.0000000000" y="86.0000000000" xlink:href="#block"/><use x="191.0000000000" y="86.0000000000" xlink:href="#block"/><use x="205.0000000000" y="86.0000000000" xlink:href="#block"/><use x="219.0000000000" y="86.0000000000" xlink:href="#block"/><use x="226.0000000000" y="86.0000000000" xlink:href="#block"/><use x="233.0000000000" y="86.0000000000" xlink:href="#block"/><use x="261.0000000000" y="86.0000000000" xlink:href="#block"/><use x="275.0000000000" y="86.0000000000" xlink:href="#block"/><use x="282.0000000000" y="86.0000000000" xlink:href="#block"/><use x="289.0000000000" y="86.0000000000" xlink:href="#block"/><use x="23.0000000000" y="93.0000000000" xlink:href="#block"/><use x="51.0000000000" y="93.0000000000" xlink:href="#block"/><use x="65.0000000000" y="93.0000000000" xlink:href="#block"/><use x="72.0000000000" y="93.0000000000" xlink:href="#block"/><use x="93.0000000000" y="93.0000000000" xlink:href="#block"/><use x="107.0000000000" y="93.0000000000" xlink:href="#block"/><use x="128.0000000000" y="93.0000000000" xlink:href="#block"/><use x="135.0000000000" y="93.0000000000" xlink:href="#block"/><use x="142.0000000000" y="93.0000000000" xlink:href="#block"/><use x="149.0000000000" y="93.0000000000" xlink:href="#block"/><use x="156.0000000000" y="93.0000000000" xlink:href="#block"/><use x="163.0000000000" y="93.0000000000" xlink:href="#block"/><use x="170.0000000000" y="93.0000000000" xlink:href="#block"/><use x="177.0000000000" y="93.0000000000" xlink:href="#block"/><use x="191.0000000000" y="93.0000000000" xlink:href="#block"/><use x="212.0000000000" y="93.0000000000" xlink:href="#block"/><use x="219.0000000000" y="93.0000000000" xlink:href="#block"/><use x="226.0000000000" y="93.0000000000" xlink:href="#block"/><use x="233.0000000000" y="93.0000000000" xlink:href="#block"/><use x="247.0000000000" y="93.0000000000" xlink:href="#block"/><use x="254.0000000000" y="93.0000000000" xlink:href="#block"/><use x="268.0000000000" y="93.0000000000" xlink:href="#block"/><use x="275.0000000000" y="93.0000000000" xlink:href="#block"/><use x="289.0000000000" y="93.0000000000" xlink:href="#block"/><use x="296.0000000000" y="93.0000000000" xlink:href="#block"/><use x="30.0000000000" y="100.0000000000" xlink:href="#block"/><use x="44.0000000000" y="100.0000000000" xlink:href="#block"/><use x="51.0000000000" y="100.0000000000" xlink:href="#block"/><use x="58.0000000000" y="100.0000000000" xlink:href="#block"/><use x="65.0000000000" y="100.0000000000" xlink:href="#block"/><use x="79.0000000000" y="100.0000000000" xlink:href="#block"/><use x="86.0000000000" y="100.0000000000" xlink:href="#block"/><use x="114.0000000000" y="100.0000000000" xlink:href="#block"/><use x="121.0000000000" y="100.0000000000" xlink:href="#block"/><use x="128.0000000000" y="100.0000000000" xlink:href="#block"/><use x="156.0000000000" y="100.0000000000" xlink:href="#block"/><use x="170.0000000000" y="100.0000000000" xlink:href="#block"/><use x="198.0000000000" y="100.0000000000" xlink:href="#block"/><use x="205.0000000000" y="100.0000000000" xlink:href="#block"/><use x="247.0000000000" y="100.0000000000" xlink:href="#block"/><use x="23.0000000000" y="107.0000000000" xlink:href="#block"/><use x="30.0000000000" y="107.0000000000" xlink:href="#block"/><use x="37.0000000000" y="107.0000000000" xlink:href="#block"/><use x="79.0000000000" y="107.0000000000" xlink:href="#block"/><use x="100.0000000000" y="107.0000000000" xlink:href="#block"/><use x="121.0000000000" y="107.0000000000" xlink:href="#block"/><use x="142.0000000000" y="107.0000000000" xlink:href="#block"/><use x="163.0000000000" y="107.0000000000" xlink:href="#block"/><use x="184.0000000000" y="107.0000000000" xlink:href="#block"/><use x="198.0000000000" y="107.0000000000" xlink:href="#block"/><use x="268.0000000000" y="107.0000000000" xlink:href="#block"/><use x="275.0000000000" y="107.0000000000" xlink:href="#block"/><use x="289.0000000000" y="107.0000000000" xlink:href="#block"/><use x="37.0000000000" y="114.0000000000" xlink:href="#block"/><use x="44.0000000000" y="114.0000000000" xlink:href="#block"/><use x="51.0000000000" y="114.0000000000" xlink:href="#block"/><use x="58.0000000000" y="114.0000000000" xlink:href="#block"/><use x="65.0000000000" y="114.0000000000" xlink:href="#block"/><use x="72.0000000000" y="114.0000000000" xlink:href="#block"/><use x="79.0000000000" y="114.0000000000" xlink:href="#block"/><use x="86.0000000000" y="114.0000000000" xlink:href="#block"/><use x="107.0000000000" y="114.0000000000" xlink:href="#block"/><use x="114.0000000000" y="114.0000000000" xlink:href="#block"/><use x="121.0000000000" y="114.0000000000" xlink:href="#block"/><use x="128.0000000000" y="114.0000000000" xlink:href="#block"/><use x="135.0000000000" y="114.0000000000" xlink:href="#block"/><use x="156.0000000000" y="114.0000000000" xlink:href="#block"/><use x="191.0000000000" y="114.0000000000" xlink:href="#block"/><use x="198.0000000000" y="114.0000000000" xlink:href="#block"/><use x="205.0000000000" y="114.0000000000" xlink:href="#block"/><use x="212.0000000000" y="114.0000000000" xlink:href="#block"/><use x="219.0000000000" y="114.0000000000" xlink:href="#block"/><use x="226.0000000000" y="114.0000000000" xlink:href="#block"/><use x="233.0000000000" y="114.0000000000" xlink:href="#block"/><use x="240.0000000000" y="114.0000000000" xlink:href="#block"/><use x="247.0000000000" y="114.0000000000" xlink:href="#block"/><use x="261.0000000000" y="114.0000000000" xlink:href="#block"/><use x="275.0000000000" y="114.0000000000" xlink:href="#block"/><use x="282.0000000000" y="114.0000000000" xlink:href="#block"/><use x="289.0000000000" y="114.0000000000" xlink:href="#block"/><use x="296.0000000000" y="114.0000000000" xlink:href="#block"/><use x="30.0000000000" y="121.0000000000" xlink:href="#block"/><use x="37.0000000000" y="121.0000000000" xlink:href="#block"/><use x="65.0000000000" y="121.0000000000" xlink:href="#block"/><use x="72.0000000000" y="121.0000000000" xlink:href="#block"/><use x="79.0000000000" y="121.0000000000" xlink:href="#block"/><use x="100.0000000000" y="121.0000000000" xlink:href="#block"/><use x="107.0000000000" y="121.0000000000" xlink:href="#block"/><use x="121.0000000000" y="121.0000000000" xlink:href="#block"/><use x="135.0000000000" y="121.0000000000" xlink:href="#block"/><use x="142.0000000000" y="121.0000000000" xlink:href="#block"/><use x="177.0000000000" y="121.0000000000" xlink:href="#block"/><use x="184.0000000000" y="121.0000000000" xlink:href="#block"/><use x="219.0000000000" y="121.0000000000" xlink:href="#block"/><use x="233.0000000000" y="121.0000000000" xlink:href="#block"/><use x="254.0000000000" y="121.0000000000" xlink:href="#block"/><use x="268.0000000000" y="121.0000000000" xlink:href="#block"/><use x="289.0000000000" y="121.0000000000" xlink:href="#block"/><use x="296.0000000000" y="121.0000000000" xlink:href="#block"/><use x="16.0000000000" y="128.0000000000" xlink:href="#block"/><use x="23.0000000000" y="128.0000000000" xlink:href="#block"/><use x="30.0000000000" y="128.0000000000" xlink:href="#block"/><use x="37.0000000000" y="128.0000000000" xlink:href="#block"/><use x="44.0000000000" y="128.0000000000" xlink:href="#block"/><use x="58.0000000000" y="128.0000000000" xlink:href="#block"/><use x="65.0000000000" y="128.0000000000" xlink:href="#block"/><use x="72.0000000000" y="128.0000000000" xlink:href="#block"/><use x="107.0000000000" y="128.0000000000" xlink:href="#block"/><use x="114.0000000000" y="128.0000000000" xlink:href="#block"/><use x="121.0000000000" y="128.0000000000" xlink:href="#block"/><use x="128.0000000000" y="128.0000000000" xlink:href="#block"/><use x="135.0000000000" y="128.0000000000" xlink:href="#block"/><use x="170.0000000000" y="128.0000000000" xlink:href="#block"/><use x="191.0000000000" y="128.0000000000" xlink:href="#block"/><use x="205.0000000000" y="128.0000000000" xlink:href="#block"/><use x="212.0000000000" y="128.0000000000" xlink:href="#block"/><use x="226.0000000000" y="128.0000000000" xlink:href="#block"/><use x="247.0000000000" y="128.0000000000" xlink:href="#block"/><use x="261.0000000000" y="128.0000000000" xlink:href="#block"/><use x="16.0000000000" y="135.0000000000" xlink:href="#block"/><use x="30.0000000000" y="135.0000000000" xlink:href="#block"/><use x="44.0000000000" y="135.0000000000" xlink:href="#block"/><use x="51.0000000000" y="135.0000000000" xlink:href="#block"/><use x="79.0000000000" y="135.0000000000" xlink:href="#block"/><use x="86.0000000000" y="135.0000000000" xlink:href="#block"/><use x="156.0000000000" y="135.0000000000" xlink:href="#block"/><use x="163.0000000000" y="135.0000000000" xlink:href="#block"/><use x="170.0000000000" y="135.0000000000" xlink:href="#block"/><use x="198.0000000000" y="135.0000000000" xlink:href="#block"/><use x="205.0000000000" y="135.0000000000" xlink:href="#block"/><use x="212.0000000000" y="135.0000000000" xlink:href="#block"/><use x="226.0000000000" y="135.0000000000" xlink:href="#block"/><use x="247.0000000000" y="135.0000000000" xlink:href="#block"/><use x="254.0000000000" y="135.0000000000" xlink:href="#block"/><use x="261.0000000000" y="135.0000000000" xlink:href="#block"/><use x="275.0000000000" y="135.0000000000" xlink:href="#block"/><use x="289.0000000000" y="135.0000000000" xlink:href="#block"/><use x="296.0000000000" y="135.0000000000" xlink:href="#block"/><use x="30.0000000000" y="142.0000000000" xlink:href="#block"/><use x="44.0000000000" y="142.0000000000" xlink:href="#block"/><use x="51.0000000000" y="142.0000000000" xlink:href="#block"/><use x="58.0000000000" y="142.0000000000" xlink:href="#block"/><use x="100.0000000000" y="142.0000000000" xlink:href="#block"/><use x="121.0000000000" y="142.0000000000" xlink:href="#block"/><use x="142.0000000000" y="142.0000000000" xlink:href="#block"/><use x="156.0000000000" y="142.0000000000" xlink:href="#block"/><use x="177.0000000000" y="142.0000000000" xlink:href="#block"/><use x="184.0000000000" y="142.0000000000" xlink:href="#block"/><use x="191.0000000000" y="142.0000000000" xlink:href="#block"/><use x="205.0000000000" y="142.0000000000" xlink:href="#block"/><use x="212.0000000000" y="142.0000000000" xlink:href="#block"/><use x="219.0000000000" y="142.0000000000" xlink:href="#block"/><use x="226.0000000000" y="142.0000000000" xlink:href="#block"/><use x="240.0000000000" y="142.0000000000" xlink:href="#block"/><use x="275.0000000000" y="142.0000000000" xlink:href="#block"/><use x="282.0000000000" y="142.0000000000" xlink:href="#block"/><use x="289.0000000000" y="142.0000000000" xlink:href="#block"/><use x="44.0000000000" y="149.0000000000" xlink:href="#block"/><use x="93.0000000000" y="149.0000000000" xlink:href="#block"/><use x="114.0000000000" y="149.0000000000" xlink:href="#block"/><use x="128.0000000000" y="149.0000000000" xlink:href="#block"/><use x="149.0000000000" y="149.0000000000" xlink:href="#block"/><use x="156.0000000000" y="149.0000000000" xlink:href="#block"/><use x="163.0000000000" y="149.0000000000" xlink:href="#block"/><use x="170.0000000000" y="149.0000000000" xlink:href="#block"/><use x="177.0000000000" y="149.0000000000" xlink:href="#block"/><use x="198.0000000000" y="149.0000000000" xlink:href="#block"/><use x="212.0000000000" y="149.0000000000" xlink:href="#block"/><use x="233.0000000000" y="149.0000000000" xlink:href="#block"/><use x="247.0000000000" y="149.0000000000" xlink:href="#block"/><use x="254.0000000000" y="149.0000000000" xlink:href="#block"/><use x="268.0000000000" y="149.0000000000" xlink:href="#block"/><use x="275.0000000000" y="149.0000000000" xlink:href="#block"/><use x="296.0000000000" y="149.0000000000" xlink:href="#block"/><use x="44.0000000000" y="156.0000000000" xlink:href="#block"/><use x="51.0000000000" y="156.0000000000" xlink:href="#block"/><use x="58.0000000000" y="156.0000000000" xlink:href="#block"/><use x="65.0000000000" y="156.0000000000" xlink:href="#block"/><use x="72.0000000000" y="156.0000000000" xlink:href="#block"/><use x="79.0000000000" y="156.0000000000" xlink:href="#block"/><use x="86.0000000000" y="156.0000000000" xlink:href="#block"/><use x="100.0000000000" y="156.0000000000" xlink:href="#block"/><use x="121.0000000000" y="156.0000000000" xlink:href="#block"/><use x="142.0000000000" y="156.0000000000" xlink:href="#block"/><use x="163.0000000000" y="156.0000000000" xlink:href="#block"/><use x="170.0000000000" y="156.0000000000" xlink:href="#block"/><use x="198.0000000000" y="156.0000000000" xlink:href="#block"/><use x="205.0000000000" y="156.0000000000" xlink:href="#block"/><use x="240.0000000000" y="156.0000000000" xlink:href="#block"/><use x="16.0000000000" y="163.0000000000" xlink:href="#block"/><use x="30.0000000000" y="163.0000000000" xlink:href="#block"/><use x="51.0000000000" y="163.0000000000" xlink:href="#block"/><use x="65.0000000000" y="163.0000000000" xlink:href="#block"/><use x="79.0000000000" y="163.0000000000" xlink:href="#block"/><use x="86.0000000000" y="163.0000000000" xlink:href="#block"/><use x="114.0000000000" y="163.0000000000" xlink:href="#block"/><use x="121.0000000000" y="163.0000000000" xlink:href="#block"/><use x="128.0000000000" y="163.0000000000" xlink:href="#block"/><use x="156.0000000000" y="163.0000000000" xlink:href="#block"/><use x="163.0000000000" y="163.0000000000" xlink:href="#block"/><use x="170.0000000000" y="163.0000000000" xlink:href="#block"/><use x="205.0000000000" y="163.0000000000" xlink:href="#block"/><use x="226.0000000000" y="163.0000000000" xlink:href="#block"/><use x="240.0000000000" y="163.0000000000" xlink:href="#block"/><use x="261.0000000000" y="163.0000000000" xlink:href="#block"/><use x="268.0000000000" y="163.0000000000" xlink:href="#block"/><use x="275.0000000000" y="163.0000000000" xlink:href="#block"/><use x="289.0000000000" y="163.0000000000" xlink:href="#block"/><use x="23.0000000000" y="170.0000000000" xlink:href="#block"/><use x="44.0000000000" y="170.0000000000" xlink:href="#block"/><use x="58.0000000000" y="170.0000000000" xlink:href="#block"/><use x="65.0000000000" y="170.0000000000" xlink:href="#block"/><use x="86.0000000000" y="170.0000000000" xlink:href="#block"/><use x="93.0000000000" y="170.0000000000" xlink:href="#block"/><use x="100.0000000000" y="170.0000000000" xlink:href="#block"/><use x="107.0000000000" y="170.0000000000" xlink:href="#block"/><use x="114.0000000000" y="170.0000000000" xlink:href="#block"/><use x="135.0000000000" y="170.0000000000" xlink:href="#block"/><use x="149.0000000000" y="170.0000000000" xlink:href="#block"/><use x="170.0000000000" y="170.0000000000" xlink:href="#block"/><use x="191.0000000000" y="170.0000000000" xlink:href="#block"/><use x="212.0000000000" y="170.0000000000" xlink:href="#block"/><use x="219.0000000000" y="170.0000000000" xlink:href="#block"/><use x="226.0000000000" y="170.0000000000" xlink:href="#block"/><use x="247.0000000000" y="170.0000000000" xlink:href="#block"/><use x="261.0000000000" y="170.0000000000" xlink:href="#block"/><use x="282.0000000000" y="170.0000000000" xlink:href="#block"/><use x="296.0000000000" y="170.0000000000" xlink:href="#block"/><use x="16.0000000000" y="177.0000000000" xlink:href="#block"/><use x="30.0000000000" y="177.0000000000" xlink:href="#block"/><use x="51.0000000000" y="177.0000000000" xlink:href="#block"/><use x="65.0000000000" y="177.0000000000" xlink:href="#block"/><use x="72.0000000000" y="177.0000000000" xlink:href="#block"/><use x="79.0000000000" y="177.0000000000" xlink:href="#block"/><use x="86.0000000000" y="177.0000000000" xlink:href="#block"/><use x="93.0000000000" y="177.0000000000" xlink:href="#block"/><use x="114.0000000000" y="177.0000000000" xlink:href="#block"/><use x="128.0000000000" y="177.0000000000" xlink:href="#block"/><use x="135.0000000000" y="177.0000000000" xlink:href="#block"/><use x="142.0000000000" y="177.0000000000" xlink:href="#block"/><use x="149.0000000000" y="177.0000000000" xlink:href="#block"/><use x="156.0000000000" y="177.0000000000" xlink:href="#block"/><use x="163.0000000000" y="177.0000000000" xlink:href="#block"/><use x="177.0000000000" y="177.0000000000" xlink:href="#block"/><use x="184.0000000000" y="177.0000000000" xlink:href="#block"/><use x="191.0000000000" y="177.0000000000" xlink:href="#block"/><use x="233.0000000000" y="177.0000000000" xlink:href="#block"/><use x="240.0000000000" y="177.0000000000" xlink:href="#block"/><use x="254.0000000000" y="177.0000000000" xlink:href="#block"/><use x="268.0000000000" y="177.0000000000" xlink:href="#block"/><use x="289.0000000000" y="177.0000000000" xlink:href="#block"/><use x="296.0000000000" y="177.0000000000" xlink:href="#block"/><use x="37.0000000000" y="184.0000000000" xlink:href="#block"/><use x="44.0000000000" y="184.0000000000" xlink:href="#block"/><use x="51.0000000000" y="184.0000000000" xlink:href="#block"/><use x="58.0000000000" y="184.0000000000" xlink:href="#block"/><use x="72.0000000000" y="184.0000000000" xlink:href="#block"/><use x="93.0000000000" y="184.0000000000" xlink:href="#block"/><use x="100.0000000000" y="184.0000000000" xlink:href="#block"/><use x="114.0000000000" y="184.0000000000" xlink:href="#block"/><use x="128.0000000000" y="184.0000000000" xlink:href="#block"/><use x="135.0000000000" y="184.0000000000" xlink:href="#block"/><use x="149.0000000000" y="184.0000000000" xlink:href="#block"/><use x="156.0000000000" y="184.0000000000" xlink:href="#block"/><use x="163.0000000000" y="184.0000000000" xlink:href="#block"/><use x="191.0000000000" y="184.0000000000" xlink:href="#block"/><use x="198.0000000000" y="184.0000000000" xlink:href="#block"/><use x="205.0000000000" y="184.0000000000" xlink:href="#block"/><use x="226.0000000000" y="184.0000000000" xlink:href="#block"/><use x="261.0000000000" y="184.0000000000" xlink:href="#block"/><use x="275.0000000000" y="184.0000000000" xlink:href="#block"/><use x="282.0000000000" y="184.0000000000" xlink:href="#block"/><use x="23.0000000000" y="191.0000000000" xlink:href="#block"/><use x="30.0000000000" y="191.0000000000" xlink:href="#block"/><use x="65.0000000000" y="191.0000000000" xlink:href="#block"/><use x="72.0000000000" y="191.0000000000" xlink:href="#block"/><use x="86.0000000000" y="191.0000000000" xlink:href="#block"/><use x="107.0000000000" y="191.0000000000" xlink:href="#block"/><use x="128.0000000000" y="191.0000000000" xlink:href="#block"/><use x="135.0000000000" y="191.0000000000" xlink:href="#block"/><use x="142.0000000000" y="191.0000000000" xlink:href="#block"/><use x="149.0000000000" y="191.0000000000" xlink:href="#block"/><use x="163.0000000000" y="191.0000000000" xlink:href="#block"/><use x="170.0000000000" y="191.0000000000" xlink:href="#block"/><use x="198.0000000000" y="191.0000000000" xlink:href="#block"/><use x="205.0000000000" y="191.0000000000" xlink:href="#block"/><use x="226.0000000000" y="191.0000000000" xlink:href="#block"/><use x="233.0000000000" y="191.0000000000" xlink:href="#block"/><use x="240.0000000000" y="191.0000000000" xlink:href="#block"/><use x="254.0000000000" y="191.0000000000" xlink:href="#block"/><use x="261.0000000000" y="191.0000000000" xlink:href="#block"/><use x="275.0000000000" y="191.0000000000" xlink:href="#block"/><use x="296.0000000000" y="191.0000000000" xlink:href="#block"/><use x="44.0000000000" y="198.0000000000" xlink:href="#block"/><use x="51.0000000000" y="198.0000000000" xlink:href="#block"/><use x="58.0000000000" y="198.0000000000" xlink:href="#block"/><use x="65.0000000000" y="198.0000000000" xlink:href="#block"/><use x="72.0000000000" y="198.0000000000" xlink:href="#block"/><use x="100.0000000000" y="198.0000000000" xlink:href="#block"/><use x="107.0000000000" y="198.0000000000" xlink:href="#block"/><use x="114.0000000000" y="198.0000000000" xlink:href="#block"/><use x="135.0000000000" y="198.0000000000" xlink:href="#block"/><use x="156.0000000000" y="198.0000000000" xlink:href="#block"/><use x="170.0000000000" y="198.0000000000" xlink:href="#block"/><use x="191.0000000000" y="198.0000000000" xlink:href="#block"/><use x="198.0000000000" y="198.0000000000" xlink:href="#block"/><use x="205.0000000000" y="198.0000000000" xlink:href="#block"/><use x="212.0000000000" y="198.0000000000" xlink:href="#block"/><use x="219.0000000000" y="198.0000000000" xlink:href="#block"/><use x="233.0000000000" y="198.0000000000" xlink:href="#block"/><use x="247.0000000000" y="198.0000000000" xlink:href="#block"/><use x="275.0000000000" y="198.0000000000" xlink:href="#block"/><use x="282.0000000000" y="198.0000000000" xlink:href="#block"/><use x="296.0000000000" y="198.0000000000" xlink:href="#block"/><use x="23.0000000000" y="205.0000000000" xlink:href="#block"/><use x="44.0000000000" y="205.0000000000" xlink:href="#block"/><use x="65.0000000000" y="205.0000000000" xlink:href="#block"/><use x="79.0000000000" y="205.0000000000" xlink:href="#block"/><use x="86.0000000000" y="205.0000000000" xlink:href="#block"/><use x="93.0000000000" y="205.0000000000" xlink:href="#block"/><use x="107.0000000000" y="205.0000000000" xlink:href="#block"/><use x="128.0000000000" y="205.0000000000" xlink:href="#block"/><use x="135.0000000000" y="205.0000000000" xlink:href="#block"/><use x="142.0000000000" y="205.0000000000" xlink:href="#block"/><use x="149.0000000000" y="205.0000000000" xlink:href="#block"/><use x="156.0000000000" y="205.0000000000" xlink:href="#block"/><use x="163.0000000000" y="205.0000000000" xlink:href="#block"/><use x="177.0000000000" y="205.0000000000" xlink:href="#block"/><use x="212.0000000000" y="205.0000000000" xlink:href="#block"/><use x="226.0000000000" y="205.0000000000" xlink:href="#block"/><use x="233.0000000000" y="205.0000000000" xlink:href="#block"/><use x="254.0000000000" y="205.0000000000" xlink:href="#block"/><use x="268.0000000000" y="205.0000000000" xlink:href="#block"/><use x="289.0000000000" y="205.0000000000" xlink:href="#block"/><use x="296.0000000000" y="205.0000000000" xlink:href="#block"/><use x="16.0000000000" y="212.0000000000" xlink:href="#block"/><use x="51.0000000000" y="212.0000000000" xlink:href="#block"/><use x="58.0000000000" y="212.0000000000" xlink:href="#block"/><use x="65.0000000000" y="212.0000000000" xlink:href="#block"/><use x="72.0000000000" y="212.0000000000" xlink:href="#block"/><use x="114.0000000000" y="212.0000000000" xlink:href="#block"/><use x="121.0000000000" y="212.0000000000" xlink:href="#block"/><use x="128.0000000000" y="212.0000000000" xlink:href="#block"/><use x="156.0000000000" y="212.0000000000" xlink:href="#block"/><use x="170.0000000000" y="212.0000000000" xlink:href="#block"/><use x="184.0000000000" y="212.0000000000" xlink:href="#block"/><use x="198.0000000000" y="212.0000000000" xlink:href="#block"/><use x="205.0000000000" y="212.0000000000" xlink:href="#block"/><use x="212.0000000000" y="212.0000000000" xlink:href="#block"/><use x="240.0000000000" y="212.0000000000" xlink:href="#block"/><use x="247.0000000000" y="212.0000000000" xlink:href="#block"/><use x="261.0000000000" y="212.0000000000" xlink:href="#block"/><use x="268.0000000000" y="212.0000000000" xlink:href="#block"/><use x="289.0000000000" y="212.0000000000" xlink:href="#block"/><use x="16.0000000000" y="219.0000000000" xlink:href="#block"/><use x="23.0000000000" y="219.0000000000" xlink:href="#block"/><use x="30.0000000000" y="219.0000000000" xlink:href="#block"/><use x="44.0000000000" y="219.0000000000" xlink:href="#block"/><use x="65.0000000000" y="219.0000000000" xlink:href="#block"/><use x="79.0000000000" y="219.0000000000" xlink:href="#block"/><use x="86.0000000000" y="219.0000000000" xlink:href="#block"/><use x="100.0000000000" y="219.0000000000" xlink:href="#block"/><use x="121.0000000000" y="219.0000000000" xlink:href="#block"/><use x="142.0000000000" y="219.0000000000" xlink:href="#block"/><use x="163.0000000000" y="219.0000000000" xlink:href="#block"/><use x="177.0000000000" y="219.0000000000" xlink:href="#block"/><use x="205.0000000000" y="219.0000000000" xlink:href="#block"/><use x="212.0000000000" y="219.0000000000" xlink:href="#block"/><use x="226.0000000000" y="219.0000000000" xlink:href="#block"/><use x="240.0000000000" y="219.0000000000" xlink:href="#block"/><use x="247.0000000000" y="219.0000000000" xlink:href="#block"/><use x="254.0000000000" y="219.0000000000" xlink:href="#block"/><use x="261.0000000000" y="219.0000000000" xlink:href="#block"/><use x="268.0000000000" y="219.0000000000" xlink:href="#block"/><use x="289.0000000000" y="219.0000000000" xlink:href="#block"/><use x="16.0000000000" y="226.0000000000" xlink:href="#block"/><use x="37.0000000000" y="226.0000000000" xlink:href="#block"/><use x="58.0000000000" y="226.0000000000" xlink:href="#block"/><use x="86.0000000000" y="226.0000000000" xlink:href="#block"/><use x="107.0000000000" y="226.0000000000" xlink:href="#block"/><use x="121.0000000000" y="226.0000000000" xlink:href="#block"/><use x="128.0000000000" y="226.0000000000" xlink:href="#block"/><use x="135.0000000000" y="226.0000000000" xlink:href="#block"/><use x="156.0000000000" y="226.0000000000" xlink:href="#block"/><use x="170.0000000000" y="226.0000000000" xlink:href="#block"/><use x="184.0000000000" y="226.0000000000" xlink:href="#block"/><use x="191.0000000000" y="226.0000000000" xlink:href="#block"/><use x="198.0000000000" y="226.0000000000" xlink:href="#block"/><use x="219.0000000000" y="226.0000000000" xlink:href="#block"/><use x="226.0000000000" y="226.0000000000" xlink:href="#block"/><use x="233.0000000000" y="226.0000000000" xlink:href="#block"/><use x="247.0000000000" y="226.0000000000" xlink:href="#block"/><use x="282.0000000000" y="226.0000000000" xlink:href="#block"/><use x="16.0000000000" y="233.0000000000" xlink:href="#block"/><use x="30.0000000000" y="233.0000000000" xlink:href="#block"/><use x="44.0000000000" y="233.0000000000" xlink:href="#block"/><use x="65.0000000000" y="233.0000000000" xlink:href="#block"/><use x="79.0000000000" y="233.0000000000" xlink:href="#block"/><use x="100.0000000000" y="233.0000000000" xlink:href="#block"/><use x="107.0000000000" y="233.0000000000" xlink:href="#block"/><use x="121.0000000000" y="233.0000000000" xlink:href="#block"/><use x="163.0000000000" y="233.0000000000" xlink:href="#block"/><use x="170.0000000000" y="233.0000000000" xlink:href="#block"/><use x="177.0000000000" y="233.0000000000" xlink:href="#block"/><use x="233.0000000000" y="233.0000000000" xlink:href="#block"/><use x="247.0000000000" y="233.0000000000" xlink:href="#block"/><use x="254.0000000000" y="233.0000000000" xlink:href="#block"/><use x="261.0000000000" y="233.0000000000" xlink:href="#block"/><use x="268.0000000000" y="233.0000000000" xlink:href="#block"/><use x="275.0000000000" y="233.0000000000" xlink:href="#block"/><use x="282.0000000000" y="233.0000000000" xlink:href="#block"/><use x="289.0000000000" y="233.0000000000" xlink:href="#block"/><use x="296.0000000000" y="233.0000000000" xlink:href="#block"/><use x="16.0000000000" y="240.0000000000" xlink:href="#block"/><use x="30.0000000000" y="240.0000000000" xlink:href="#block"/><use x="44.0000000000" y="240.0000000000" xlink:href="#block"/><use x="51.0000000000" y="240.0000000000" xlink:href="#block"/><use x="58.0000000000" y="240.0000000000" xlink:href="#block"/><use x="65.0000000000" y="240.0000000000" xlink:href="#block"/><use x="79.0000000000" y="240.0000000000" xlink:href="#block"/><use x="86.0000000000" y="240.0000000000" xlink:href="#block"/><use x="100.0000000000" y="240.0000000000" xlink:href="#block"/><use x="107.0000000000" y="240.0000000000" xlink:href="#block"/><use x="114.0000000000" y="240.0000000000" xlink:href="#block"/><use x="121.0000000000" y="240.0000000000" xlink:href="#block"/><use x="135.0000000000" y="240.0000000000" xlink:href="#block"/><use x="142.0000000000" y="240.0000000000" xlink:href="#block"/><use x="156.0000000000" y="240.0000000000" xlink:href="#block"/><use x="163.0000000000" y="240.0000000000" xlink:href="#block"/><use x="170.0000000000" y="240.0000000000" xlink:href="#block"/><use x="198.0000000000" y="240.0000000000" xlink:href="#block"/><use x="205.0000000000" y="240.0000000000" xlink:href="#block"/><use x="212.0000000000" y="240.0000000000" xlink:href="#block"/><use x="226.0000000000" y="240.0000000000" xlink:href="#block"/><use x="240.0000000000" y="240.0000000000" xlink:href="#block"/><use x="247.0000000000" y="240.0000000000" xlink:href="#block"/><use x="254.0000000000" y="240.0000000000" xlink:href="#block"/><use x="261.0000000000" y="240.0000000000" xlink:href="#block"/><use x="268.0000000000" y="240.0000000000" xlink:href="#block"/><use x="275.0000000000" y="240.0000000000" xlink:href="#block"/><use x="282.0000000000" y="240.0000000000" xlink:href="#block"/><use x="289.0000000000" y="240.0000000000" xlink:href="#block"/><use x="296.0000000000" y="240.0000000000" xlink:href="#block"/><use x="72.0000000000" y="247.0000000000" xlink:href="#block"/><use x="86.0000000000" y="247.0000000000" xlink:href="#block"/><use x="93.0000000000" y="247.0000000000" xlink:href="#block"/><use x="100.0000000000" y="247.0000000000" xlink:href="#block"/><use x="114.0000000000" y="247.0000000000" xlink:href="#block"/><use x="121.0000000000" y="247.0000000000" xlink:href="#block"/><use x="128.0000000000" y="247.0000000000" xlink:href="#block"/><use x="156.0000000000" y="247.0000000000" xlink:href="#block"/><use x="163.0000000000" y="247.0000000000" xlink:href="#block"/><use x="177.0000000000" y="247.0000000000" xlink:href="#block"/><use x="184.0000000000" y="247.0000000000" xlink:href="#block"/><use x="212.0000000000" y="247.0000000000" xlink:href="#block"/><use x="226.0000000000" y="247.0000000000" xlink:href="#block"/><use x="240.0000000000" y="247.0000000000" xlink:href="#block"/><use x="268.0000000000" y="247.0000000000" xlink:href="#block"/><use x="275.0000000000" y="247.0000000000" xlink:href="#block"/><use x="289.0000000000" y="247.0000000000" xlink:href="#block"/><use x="296.0000000000" y="247.0000000000" xlink:href="#block"/><use x="16.0000000000" y="254.0000000000" xlink:href="#block"/><use x="23.0000000000" y="254.0000000000" xlink:href="#block"/><use x="30.0000000000" y="254.0000000000" xlink:href="#block"/><use x="37.0000000000" y="254.0000000000" xlink:href="#block"/><use x="44.0000000000" y="254.0000000000" xlink:href="#block"/><use x="51.0000000000" y="254.0000000000" xlink:href="#block"/><use x="58.0000000000" y="254.0000000000" xlink:href="#block"/><use x="72.0000000000" y="254.0000000000" xlink:href="#block"/><use x="121.0000000000" y="254.0000000000" xlink:href="#block"/><use x="142.0000000000" y="254.0000000000" xlink:href="#block"/><use x="163.0000000000" y="254.0000000000" xlink:href="#block"/><use x="184.0000000000" y="254.0000000000" xlink:href="#block"/><use x="191.0000000000" y="254.0000000000" xlink:href="#block"/><use x="219.0000000000" y="254.0000000000" xlink:href="#block"/><use x="226.0000000000" y="254.0000000000" xlink:href="#block"/><use x="240.0000000000" y="254.0000000000" xlink:href="#block"/><use x="254.0000000000" y="254.0000000000" xlink:href="#block"/><use x="268.0000000000" y="254.0000000000" xlink:href="#block"/><use x="275.0000000000" y="254.0000000000" xlink:href="#block"/><use x="282.0000000000" y="254.0000000000" xlink:href="#block"/><use x="289.0000000000" y="254.0000000000" xlink:href="#block"/><use x="16.0000000000" y="261.0000000000" xlink:href="#block"/><use x="58.0000000000" y="261.0000000000" xlink:href="#block"/><use x="86.0000000000" y="261.0000000000" xlink:href="#block"/><use x="93.0000000000" y="261.0000000000" xlink:href="#block"/><use x="114.0000000000" y="261.0000000000" xlink:href="#block"/><use x="128.0000000000" y="261.0000000000" xlink:href="#block"/><use x="149.0000000000" y="261.0000000000" xlink:href="#block"/><use x="156.0000000000" y="261.0000000000" xlink:href="#block"/><use x="163.0000000000" y="261.0000000000" xlink:href="#block"/><use x="177.0000000000" y="261.0000000000" xlink:href="#block"/><use x="198.0000000000" y="261.0000000000" xlink:href="#block"/><use x="240.0000000000" y="261.0000000000" xlink:href="#block"/><use x="268.0000000000" y="261.0000000000" xlink:href="#block"/><use x="296.0000000000" y="261.0000000000" xlink:href="#block"/><use x="16.0000000000" y="268.0000000000" xlink:href="#block"/><use x="30.0000000000" y="268.0000000000" xlink:href="#block"/><use x="37.0000000000" y="268.0000000000" xlink:href="#block"/><use x="44.0000000000" y="268.0000000000" xlink:href="#block"/><use x="58.0000000000" y="268.0000000000" xlink:href="#block"/><use x="72.0000000000" y="268.0000000000" xlink:href="#block"/><use x="100.0000000000" y="268.0000000000" xlink:href="#block"/><use x="121.0000000000" y="268.0000000000" xlink:href="#block"/><use x="142.0000000000" y="268.0000000000" xlink:href="#block"/><use x="163.0000000000" y="268.0000000000" xlink:href="#block"/><use x="205.0000000000" y="268.0000000000" xlink:href="#block"/><use x="226.0000000000" y="268.0000000000" xlink:href="#block"/><use x="240.0000000000" y="268.0000000000" xlink:href="#block"/><use x="247.0000000000" y="268.0000000000" xlink:href="#block"/><use x="254.0000000000" y="268.0000000000" xlink:href="#block"/><use x="261.0000000000" y="268.0000000000" xlink:href="#block"/><use x="268.0000000000" y="268.0000000000" xlink:href="#block"/><use x="275.0000000000" y="268.0000000000" xlink:href="#block"/><use x="282.0000000000" y="268.0000000000" xlink:href="#block"/><use x="16.0000000000" y="275.0000000000" xlink:href="#block"/><use x="30.0000000000" y="275.0000000000" xlink:href="#block"/><use x="37.0000000000" y="275.0000000000" xlink:href="#block"/><use x="44.0000000000" y="275.0000000000" xlink:href="#block"/><use x="58.0000000000" y="275.0000000000" xlink:href="#block"/><use x="72.0000000000" y="275.0000000000" xlink:href="#block"/><use x="79.0000000000" y="275.0000000000" xlink:href="#block"/><use x="114.0000000000" y="275.0000000000" xlink:href="#block"/><use x="121.0000000000" y="275.0000000000" xlink:href="#block"/><use x="128.0000000000" y="275.0000000000" xlink:href="#block"/><use x="156.0000000000" y="275.0000000000" xlink:href="#block"/><use x="163.0000000000" y="275.0000000000" xlink:href="#block"/><use x="177.0000000000" y="275.0000000000" xlink:href="#block"/><use x="198.0000000000" y="275.0000000000" xlink:href="#block"/><use x="212.0000000000" y="275.0000000000" xlink:href="#block"/><use x="226.0000000000" y="275.0000000000" xlink:href="#block"/><use x="233.0000000000" y="275.0000000000" xlink:href="#block"/><use x="240.0000000000" y="275.0000000000" xlink:href="#block"/><use x="254.0000000000" y="275.0000000000" xlink:href="#block"/><use x="275.0000000000" y="275.0000000000" xlink:href="#block"/><use x="16.0000000000" y="282.0000000000" xlink:href="#block"/><use x="30.0000000000" y="282.0000000000" xlink:href="#block"/><use x="37.0000000000" y="282.0000000000" xlink:href="#block"/><use x="44.0000000000" y="282.0000000000" xlink:href="#block"/><use x="58.0000000000" y="282.0000000000" xlink:href="#block"/><use x="72.0000000000" y="282.0000000000" xlink:href="#block"/><use x="79.0000000000" y="282.0000000000" xlink:href="#block"/><use x="86.0000000000" y="282.0000000000" xlink:href="#block"/><use x="93.0000000000" y="282.0000000000" xlink:href="#block"/><use x="100.0000000000" y="282.0000000000" xlink:href="#block"/><use x="107.0000000000" y="282.0000000000" xlink:href="#block"/><use x="114.0000000000" y="282.0000000000" xlink:href="#block"/><use x="135.0000000000" y="282.0000000000" xlink:href="#block"/><use x="142.0000000000" y="282.0000000000" xlink:href="#block"/><use x="149.0000000000" y="282.0000000000" xlink:href="#block"/><use x="170.0000000000" y="282.0000000000" xlink:href="#block"/><use x="191.0000000000" y="282.0000000000" xlink:href="#block"/><use x="198.0000000000" y="282.0000000000" xlink:href="#block"/><use x="205.0000000000" y="282.0000000000" xlink:href="#block"/><use x="212.0000000000" y="282.0000000000" xlink:href="#block"/><use x="219.0000000000" y="282.0000000000" xlink:href="#block"/><use x="226.0000000000" y="282.0000000000" xlink:href="#block"/><use x="247.0000000000" y="282.0000000000" xlink:href="#block"/><use x="254.0000000000" y="282.0000000000" xlink:href="#block"/><use x="282.0000000000" y="282.0000000000" xlink:href="#block"/><use x="289.0000000000" y="282.0000000000" xlink:href="#block"/><use x="16.0000000000" y="289.0000000000" xlink:href="#block"/><use x="58.0000000000" y="289.0000000000" xlink:href="#block"/><use x="72.0000000000" y="289.0000000000" xlink:href="#block"/><use x="86.0000000000" y="289.0000000000" xlink:href="#block"/><use x="93.0000000000" y="289.0000000000" xlink:href="#block"/><use x="107.0000000000" y="289.0000000000" xlink:href="#block"/><use x="128.0000000000" y="289.0000000000" xlink:href="#block"/><use x="135.0000000000" y="289.0000000000" xlink:href="#block"/><use x="142.0000000000" y="289.0000000000" xlink:href="#block"/><use x="149.0000000000" y="289.0000000000" xlink:href="#block"/><use x="156.0000000000" y="289.0000000000" xlink:href="#block"/><use x="163.0000000000" y="289.0000000000" xlink:href="#block"/><use x="170.0000000000" y="289.0000000000" xlink:href="#block"/><use x="177.0000000000" y="289.0000000000" xlink:href="#block"/><use x="184.0000000000" y="289.0000000000" xlink:href="#block"/><use x="191.0000000000" y="289.0000000000" xlink:href="#block"/><use x="240.0000000000" y="289.0000000000" xlink:href="#block"/><use x="261.0000000000" y="289.0000000000" xlink:href="#block"/><use x="275.0000000000" y="289.0000000000" xlink:href="#block"/><use x="296.0000000000" y="289.0000000000" xlink:href="#block"/><use x="16.0000000000" y="296.0000000000" xlink:href="#block"/><use x="23.0000000000" y="296.0000000000" xlink:href="#block"/><use x="30.0000000000" y="296.0000000000" xlink:href="#block"/><use x="37.0000000000" y="296.0000000000" xlink:href="#block"/><use x="44.0000000000" y="296.0000000000" xlink:href="#block"/><use x="51.0000000000" y="296.0000000000" xlink:href="#block"/><use x="58.0000000000" y="296.0000000000" xlink:href="#block"/><use x="72.0000000000" y="296.0000000000" xlink:href="#block"/><use x="79.0000000000" y="296.0000000000" xlink:href="#block"/><use x="86.0000000000" y="296.0000000000" xlink:href="#block"/><use x="93.0000000000" y="296.0000000000" xlink:href="#block"/><use x="107.0000000000" y="296.0000000000" xlink:href="#block"/><use x="114.0000000000" y="296.0000000000" xlink:href="#block"/><use x="128.0000000000" y="296.0000000000" xlink:href="#block"/><use x="135.0000000000" y="296.0000000000" xlink:href="#block"/><use x="149.0000000000" y="296.0000000000" xlink:href="#block"/><use x="163.0000000000" y="296.0000000000" xlink:href="#block"/><use x="170.0000000000" y="296.0000000000" xlink:href="#block"/><use x="191.0000000000" y="296.0000000000" xlink:href="#block"/><use x="198.0000000000" y="296.0000000000" xlink:href="#block"/><use x="205.0000000000" y="296.0000000000" xlink:href="#block"/><use x="226.0000000000" y="296.0000000000" xlink:href="#block"/><use x="247.0000000000" y="296.0000000000" xlink:href="#block"/><use x="254.0000000000" y="296.0000000000" xlink:href="#block"/><use x="268.0000000000" y="296.0000000000" xlink:href="#block"/><use x="282.0000000000" y="296.0000000000" xlink:href="#block"/></svg>
